<svg width="32" height="32" viewBox="0 0 32 32" fill="none" xmlns="http://www.w3.org/2000/svg">
<g clip-path="url(#clip0_2936_8374)">
<rect width="32" height="32" rx="16" fill="white"/>
<path d="M16 0C24.848 0 32 7.152 32 16C32 24.848 24.848 32 16 32C7.152 32 0 24.848 0 16C0 7.152 7.152 0 16 0ZM21.744 8L16 13.744L10.256 8L8 10.256L13.744 16L8 21.744L10.256 24L16 18.256L21.744 24L24 21.744L18.256 16L24 10.256L21.744 8Z" fill="#636466"/>
</g>
<defs>
<clipPath id="clip0_2936_8374">
<rect width="32" height="32" rx="16" fill="white"/>
</clipPath>
</defs>
</svg>
