<svg width="32" height="32" viewBox="0 0 32 32" fill="none" xmlns="http://www.w3.org/2000/svg">
<path d="M15.7073 16.5462L15.7073 25.9121" stroke="#636466" stroke-width="1.5" stroke-linecap="round" stroke-linejoin="round"/>
<path d="M11.9454 20.3237L15.7068 16.5462L19.4688 20.3237" stroke="#636466" stroke-width="1.5" stroke-linecap="round" stroke-linejoin="round"/>
<path d="M21.5131 25.1307C25.4317 25.1307 28.2398 23.2626 28.827 20.3496C28.9963 19.5502 28.9994 18.7251 28.8361 17.9245C28.6728 17.1238 28.3466 16.3643 27.8773 15.6921C27.408 15.0199 26.8053 14.449 26.1059 14.0142C25.4065 13.5793 24.6249 13.2894 23.8087 13.1623C23.7588 13.1563 23.7121 13.1346 23.6756 13.1004C23.6391 13.0662 23.6146 13.0213 23.6059 12.9723C23.3762 11.1576 22.484 9.4883 21.0968 8.27804C19.7097 7.06778 17.9233 6.3999 16.0731 6.3999C14.2229 6.3999 12.4364 7.06778 11.0493 8.27804C9.66221 9.4883 8.76998 11.1576 8.5403 12.9723C8.52871 13.02 8.50338 13.0633 8.46737 13.097C8.43136 13.1308 8.38622 13.1534 8.33743 13.1623C7.52218 13.2907 6.74181 13.5815 6.04362 14.0169C5.34544 14.4523 4.744 15.0234 4.27576 15.6954C3.80751 16.3675 3.48223 17.1266 3.31963 17.9266C3.15702 18.7266 3.16049 19.551 3.32981 20.3496C3.64391 21.7253 4.42812 22.9519 5.55031 23.8228C6.6725 24.6936 8.06408 25.1555 9.49057 25.1307" stroke="#636466" stroke-width="2" stroke-linecap="round"/>
</svg>
