<svg width="636" height="334" viewBox="0 0 636 334" fill="none" xmlns="http://www.w3.org/2000/svg">
<path d="M604.917 266.923C593.202 269.081 585.62 278.123 581.886 287.457C574.789 305.194 563.61 313.681 563.965 332.78H584.923C588.82 328.154 590.015 322.936 590.507 316.865C591.017 310.521 590.992 303.972 593.395 298.078C597.366 288.327 608.334 281.942 618.779 283.297C624.319 284.016 635.287 285.183 635.971 282.898C636.662 280.612 624.835 261.945 604.917 266.923Z" fill="#EEF9F4"/>
<path d="M572.86 333.005C572.704 333.005 572.542 332.97 572.393 332.896C571.87 332.638 571.652 332.006 571.914 331.482C573.202 328.862 574.497 327.136 575.642 325.613C578.263 322.118 580.528 319.099 581.904 306.207C582.987 296.062 590.127 285.189 596.719 278.914C603.833 272.144 615.666 268.547 624.512 274.771C624.985 275.106 625.103 275.765 624.767 276.242C624.431 276.718 623.771 276.835 623.292 276.498C615.38 270.929 604.668 274.267 598.175 280.444C591.863 286.453 585.035 296.819 584.008 306.431C582.57 319.901 580.142 323.136 577.335 326.881C576.19 328.401 575.013 329.972 573.806 332.416C573.625 332.788 573.252 333.005 572.86 333.005Z" fill="#B7D1C6"/>
<path d="M556.433 249.105C558.344 232.622 547.282 203.524 550.974 184.417C554.011 168.663 570.133 156.133 575.947 160.324C581.761 164.514 571.515 181.66 571.366 199.544C571.123 228.204 587.07 269.456 582.265 291.894C576.47 318.962 553.121 310.53 551.988 332.365H525.652C529.922 300.203 552.667 281.576 556.433 249.105Z" fill="#EEF9F4"/>
<path d="M540.112 331.864C540.069 331.864 540.031 331.862 539.988 331.857C539.409 331.788 538.992 331.263 539.06 330.684C540.803 316.013 548.472 307.923 555.885 300.1C561.046 294.655 565.919 289.512 568.546 282.404C573.489 269.015 569.691 249.993 566.019 231.597C565.77 230.36 565.527 229.126 565.284 227.899C561.425 208.373 558.686 186.838 567.662 175.168C568.017 174.706 568.683 174.619 569.144 174.975C569.604 175.33 569.692 175.993 569.337 176.456C560.877 187.457 563.585 208.427 567.357 227.489C567.6 228.716 567.843 229.948 568.092 231.184C571.82 249.867 575.68 269.187 570.526 283.136C567.756 290.65 562.732 295.945 557.417 301.553C550.24 309.126 542.82 316.957 541.158 330.933C541.096 331.469 540.641 331.864 540.112 331.864Z" fill="#B7D1C6"/>
<path d="M200.546 126.211C203.79 122.87 207.518 118.764 210.668 117.236C213.052 116.081 218.592 115.327 219.644 118.764C220.696 122.201 200.546 126.211 200.546 126.211Z" fill="#E7A9A1"/>
<path d="M347.161 130.504C350.684 136.332 365.486 146.548 365.486 146.548L349.059 164.307C349.059 164.307 340.003 148.886 335.596 146.262C335.596 146.262 338.222 140.844 340.887 136.956C343.551 133.067 347.161 130.504 347.161 130.504Z" fill="#FCCAC0"/>
<path d="M240.602 196.611C236.798 192.92 232.79 188.345 235.055 187.277C237.327 186.208 239.077 188.83 242.643 192.066C246.204 195.301 249.783 196.954 249.783 196.954L245.662 199.277L240.602 196.611Z" fill="#FFDDD7"/>
<path d="M320.601 133.181C321.646 136.523 333.206 146.644 337.98 146.835C342.755 147.026 345.867 141.069 345.052 138.051C341.609 125.351 325.948 123.036 325.948 123.036L325.805 129.051L320.601 133.181Z" fill="#E7A9A1"/>
<path d="M245.332 194.32C241.523 190.629 237.52 186.054 239.786 184.985C242.052 183.916 243.807 186.539 247.368 189.774C250.935 193.01 254.514 194.663 254.514 194.663L250.393 196.985L245.332 194.32Z" fill="#FFDDD7"/>
<path d="M235.846 194.287C234.433 194.86 242.201 202.594 248.563 205.172C254.931 207.75 261.336 206.604 263.626 208.609C265.917 210.614 270.648 221.212 270.648 221.212L286.409 211.187C286.409 211.187 278.099 199.73 272.08 197.152C266.06 194.574 235.846 194.287 235.846 194.287Z" fill="#FFDDD7"/>
<path d="M274.799 202.165C276.916 202.49 278.621 202.959 279.922 203.416C277.42 200.779 274.575 198.232 272.11 197.165L258.205 195.129C255.547 194.943 252.789 194.797 250.15 194.683L243.284 195.863C245.718 197.439 245.145 197.439 252.167 198.87C259.188 200.303 269.216 201.305 274.799 202.165Z" fill="#EBABB0"/>
<path d="M273.462 204.428C273.25 204.428 273.038 204.326 272.908 204.135C271.7 202.372 269.914 200.977 267.878 200.205C267.529 200.073 267.355 199.684 267.486 199.335C267.616 198.987 268.009 198.81 268.357 198.944C270.648 199.812 272.659 201.385 274.022 203.372C274.233 203.68 274.153 204.1 273.848 204.31C273.729 204.39 273.592 204.428 273.462 204.428Z" fill="#EBABB0"/>
<path d="M443.805 177.865C430.814 182.448 408.275 190.086 408.275 190.086C408.275 190.086 377.712 149.222 356.704 135.855C356.704 135.855 342.947 145.784 340.271 156.86C340.271 156.86 365.486 212.237 391.468 227.513C412.476 239.87 446.481 226.368 446.481 226.368L443.805 177.865Z" fill="#B3DBDE"/>
<path d="M515.581 173.332C529.094 177.674 543.896 183.594 543.896 183.594C543.896 183.594 532.816 237.253 532.244 257.016C531.671 276.781 530.812 332.158 530.812 332.158H438.551C438.551 332.158 435.768 249.004 435.974 230.665C436.26 204.886 445.429 178.247 445.429 178.247L467.757 171.632L515.581 173.332Z" fill="#FBF6F2"/>
<path d="M463.287 177.006L461.376 180.538C461.376 180.538 467.875 186.458 480.48 188.75C493.085 191.041 501.681 189.513 501.681 189.513L502.254 184.167L463.287 177.006Z" fill="#EAE2DF"/>
<path d="M535.543 103.239C536.01 96.0367 532.493 89.4314 527.906 87.6095C524.631 86.3083 521.612 87.5479 518.4 89.3026C514.803 91.264 489.655 89.5683 487.67 93.0511C485.69 96.5339 494.293 104.128 493.228 107.891C491.853 112.762 504.831 113.668 503.928 118.597C503.256 122.256 502.771 126.243 504.682 129.224C506.673 132.335 503.169 151.811 507.065 150.625C507.065 150.625 520.168 152.919 529.916 127.63C533.134 119.294 535.12 109.674 535.543 103.239Z" fill="#F5DAAF"/>
<path d="M467.757 171.632C467.757 171.632 474.48 180.665 489.742 181.42C505.005 182.176 515.581 173.331 515.581 173.331C515.581 173.331 511.678 171.035 492.637 169.327C477.374 167.959 467.757 171.632 467.757 171.632Z" fill="#E7A5AA"/>
<path d="M479.142 142.548L496.116 136.311L509.985 137.231C509.238 142.059 505.721 164.714 507.171 173.372C494.616 179.014 483.624 179.035 474.112 171.215C474.641 164.329 476.453 146.793 476.434 144.275L479.142 142.548Z" fill="#E7A5AA"/>
<path d="M501.022 136.637L496.117 136.311L479.142 142.548L476.434 144.275C476.453 146.597 474.909 161.691 474.256 169.425C476.665 170.659 480.736 171.601 487.545 170.8C496.727 169.72 503.188 165.363 507.085 161.348C507.651 153.033 509.02 143.566 509.711 139.026L501.022 136.637Z" fill="#E7A5AA"/>
<path d="M506.748 170.8C506.748 170.8 491.94 190.469 489.649 226.941C487.663 258.492 489.555 308.67 488.41 332.158H532.53C532.53 332.158 532.244 288.238 533.103 265.324C533.962 242.409 543.897 183.594 543.897 183.594C543.897 183.594 529.667 175.383 506.748 170.8Z" fill="#B3DBDE"/>
<path d="M488.41 332.395C488.391 332.395 488.379 332.395 488.366 332.394C487.893 332.371 487.526 331.968 487.551 331.494C488.043 321.313 487.968 305.998 487.887 289.783C487.788 268.679 487.669 244.761 488.79 226.887C491.074 190.578 505.907 170.482 506.057 170.284C506.343 169.905 506.885 169.828 507.258 170.113C507.644 170.398 507.719 170.937 507.432 171.316C507.283 171.511 492.755 191.236 490.508 226.995C489.387 244.811 489.506 268.698 489.611 289.774C489.692 306.013 489.767 321.351 489.263 331.578C489.244 332.037 488.864 332.395 488.41 332.395Z" fill="#9DCED1"/>
<path d="M532.53 332.395C532.057 332.395 531.677 332.014 531.671 331.542C531.671 331.108 531.397 287.963 532.244 265.291C532.76 251.659 536.445 225.477 539.452 205.914C539.527 205.445 539.969 205.12 540.435 205.195C540.902 205.267 541.226 205.706 541.151 206.175C538.151 225.694 534.472 251.805 533.962 265.355C533.115 287.989 533.389 331.097 533.389 331.53C533.395 332.005 533.01 332.392 532.536 332.395C532.536 332.395 532.536 332.395 532.53 332.395Z" fill="#9DCED1"/>
<path d="M467.757 171.632C467.757 171.632 458.706 190.087 454.118 218.348C449.537 246.61 449.151 332.158 449.151 332.158H426.998C426.998 332.158 426.232 262.65 428.143 235.916C430.048 209.182 443.804 177.865 443.804 177.865C443.804 177.865 457.442 173.542 467.757 171.632Z" fill="#B3DBDE"/>
<path d="M449.151 332.395C448.672 332.393 448.292 332.007 448.292 331.532C448.299 330.682 448.728 246.215 453.272 218.21C457.822 190.148 466.892 171.44 466.985 171.254C467.19 170.828 467.707 170.652 468.13 170.861C468.56 171.07 468.734 171.584 468.529 172.011C468.435 172.194 459.478 190.691 454.965 218.486C450.446 246.358 450.017 330.691 450.01 331.54C450.01 332.013 449.624 332.395 449.151 332.395Z" fill="#9DCED1"/>
<path d="M482.964 180.539C482.964 180.539 506.841 167.935 507.034 166.599C507.221 165.262 507.034 161.061 507.414 157.624C507.414 157.624 518.208 159.629 523.075 163.352C529.094 167.953 532.057 174.715 531.671 177.388C531.292 180.061 503.212 191.041 482.584 186.649C472.662 184.538 482.964 180.539 482.964 180.539Z" fill="#FBF6F2"/>
<path d="M482.965 180.538L474.368 167.744L475.707 160.296C475.707 160.296 467.621 161.548 464.819 163.734C460.904 166.789 456.889 170.608 457.462 174.236C458.034 177.865 472.264 184.739 481.819 186.649C485.274 187.34 482.965 180.538 482.965 180.538Z" fill="#FBF6F2"/>
<path d="M513.209 129.89C507.501 128.64 507.314 120.905 509.636 115.836C509.636 115.836 500.38 108.42 503.866 97.2879C495.45 89.4499 469.083 83.7164 465.778 100.409C460.256 128.306 461.725 144.356 464.439 152.506C467.296 161.08 477.996 165.758 488.896 162.6C496.06 160.525 502.447 158.166 507.202 143.536C512.668 145.794 517.591 142.598 520.529 137.834C525.721 127.385 516.577 126.482 513.209 129.89Z" fill="#F8BEB3"/>
<path d="M480.617 116.927C480.617 116.927 481.203 118.722 481.47 121.589C481.539 122.309 481.557 123.103 481.483 123.965C481.445 124.407 481.402 124.821 481.277 125.339C481.159 125.76 481.128 126.114 480.935 126.613C480.313 128.521 479.285 130.215 478.028 131.75C476.783 133.266 475.351 134.609 474.137 135.78C473.857 136.059 473.559 136.372 473.453 136.529C473.453 136.529 473.397 136.613 473.428 136.553C473.521 136.406 473.502 136.269 473.49 136.072C473.571 136.485 473.428 135.879 473.496 136.104C473.64 136.379 474.175 136.836 474.635 137.122C475.6 137.778 476.584 138.131 477.25 138.386C477.947 138.595 478.339 138.714 478.339 138.714L478.364 138.721C478.899 138.883 479.198 139.449 479.024 139.986C478.887 140.398 478.514 140.673 478.103 140.704C478.103 140.704 477.586 140.742 476.696 140.629C475.806 140.522 474.561 140.213 473.166 139.464C472.482 139.027 471.753 138.617 471.05 137.568C470.901 137.468 470.608 136.481 470.658 136.493C470.596 136.096 470.714 135.767 470.838 135.423C470.957 135.177 471.037 135.093 471.15 134.924C471.542 134.411 471.865 134.128 472.202 133.8C473.527 132.586 474.841 131.412 475.986 130.083C477.101 128.778 478.078 127.29 478.613 125.94C478.775 125.645 478.868 125.152 478.999 124.781C479.086 124.498 479.161 124.106 479.204 123.765C479.298 123.061 479.335 122.364 479.348 121.714C479.354 120.411 479.242 119.304 479.142 118.538C479.03 117.781 478.962 117.348 478.962 117.348C478.887 116.889 479.204 116.449 479.671 116.366C480.095 116.292 480.493 116.541 480.617 116.927Z" fill="#EF9BA3"/>
<path d="M511.429 134.712C509.692 137.009 509.512 139.619 511.031 140.543C512.556 141.466 515.195 140.353 516.938 138.057C518.681 135.76 518.855 133.15 517.337 132.227C515.818 131.302 513.172 132.416 511.429 134.712Z" fill="#E7989F"/>
<path d="M475.93 112.612C475.625 114.209 472.308 114.107 468.884 114.283C463.823 114.543 462.578 114.515 462.18 113.138C461.987 112.47 462.591 109.348 468.068 108.914C474.468 108.406 476.242 110.972 475.93 112.612Z" fill="#F5DAAF"/>
<path d="M494.367 117.783C498.015 119.067 500.723 120.662 501.843 119.467C502.796 118.455 502.503 115.485 496.789 112.772C493.639 111.275 488.298 110.549 487.371 113.403C486.505 116.064 490.657 116.476 494.367 117.783Z" fill="#F5DAAF"/>
<path d="M476.316 148.876C474.648 148.876 473.347 148.625 472.749 148.204C472.394 147.954 472.314 147.465 472.563 147.112C472.812 146.758 473.303 146.675 473.658 146.924C475.09 147.941 484.931 147.467 489.251 141.85C489.513 141.506 490.004 141.441 490.353 141.706C490.695 141.97 490.758 142.462 490.496 142.805C487.048 147.286 480.518 148.876 476.316 148.876Z" fill="#57474C"/>
<path d="M486.873 149.771C487.103 150.57 486.207 152.452 483.86 153.132C481.426 153.837 479.341 152.818 479.111 152.019C478.88 151.219 480.785 151.511 482.933 150.891C485.074 150.271 486.636 148.972 486.873 149.771Z" fill="#E7989F"/>
<path d="M496.702 123.826C497.281 124.193 494.921 128.662 489.886 127.421C486.232 126.521 486.481 123.639 487.035 123.439C487.595 123.239 488.292 124.811 490.309 125.405C493.017 126.205 496.129 123.458 496.702 123.826Z" fill="#57474C"/>
<path d="M474.685 120.711C475.657 121.468 473.03 125.313 468.903 124.331C465.137 123.435 465.442 119.987 466.058 119.904C466.668 119.82 466.562 121.833 469.301 122.4C472.357 123.033 474.194 120.293 474.685 120.711Z" fill="#57474C"/>
<path d="M504.364 97.2501C504.364 97.2501 491.834 101.938 477.474 98.7921C458.395 94.6154 455.588 83.2088 455.588 83.2088L459.889 83.9349L457.904 79.4995C457.904 79.4995 464.47 79.347 472.195 76.6931C478.078 74.6701 489.487 67.356 506.3 69.8457C525.615 72.7062 526.188 87.4999 526.188 87.4999C526.188 87.4999 516.701 94.8998 504.364 97.2501Z" fill="#F5DAAF"/>
<path d="M522.011 119.649C521.955 119.649 521.893 119.643 521.837 119.631C521.644 119.592 517.069 118.628 512.749 115.094C510.184 113.101 507.252 109.557 506.767 105.625C506.711 105.15 507.047 104.718 507.52 104.659C507.993 104.597 508.429 104.938 508.485 105.412C508.833 108.219 510.931 111.488 513.826 113.74C517.816 117.005 522.142 117.926 522.186 117.935C522.653 118.032 522.951 118.489 522.858 118.957C522.771 119.366 522.416 119.649 522.011 119.649Z" fill="#E7CCA3"/>
<path d="M520.006 124.148C519.975 124.148 519.95 124.147 519.925 124.145C517.118 123.889 514.392 122.58 512.437 120.554C512.107 120.209 512.12 119.662 512.462 119.33C512.804 118.998 513.352 119.007 513.688 119.352C515.357 121.083 517.685 122.201 520.081 122.42C520.56 122.463 520.909 122.885 520.866 123.361C520.822 123.811 520.448 124.148 520.006 124.148Z" fill="#E7CCA3"/>
<path d="M488.995 97.0386C479.901 97.0386 470.788 94.3087 463.387 89.0382C462.995 88.7606 462.902 88.2199 463.182 87.8304C463.462 87.4414 464.003 87.3506 464.389 87.6275C476.005 95.8949 491.996 97.6546 505.13 92.1115C505.571 91.9242 506.076 92.1327 506.262 92.5726C506.449 93.0132 506.244 93.5209 505.802 93.707C500.498 95.944 494.753 97.0386 488.995 97.0386Z" fill="#E7CCA3"/>
<path d="M474.418 89.895C474.324 89.895 474.237 89.8819 474.15 89.8539C469.55 88.3816 465.224 85.8993 461.626 82.6759C461.271 82.3561 461.24 81.8091 461.563 81.4532C461.881 81.0966 462.429 81.0674 462.783 81.3866C466.201 84.4488 470.309 86.8066 474.679 88.2043C475.134 88.3505 475.383 88.8378 475.239 89.2933C475.121 89.661 474.779 89.895 474.418 89.895Z" fill="#E7CCA3"/>
<path d="M522.671 87.8315C522.211 87.8315 521.825 87.4663 521.806 87.0008C521.794 86.7096 521.395 79.8975 512.811 75.8365C503.966 71.6504 495.058 73.348 494.971 73.3648C494.504 73.4581 494.043 73.1532 493.95 72.684C493.857 72.2148 494.162 71.7593 494.635 71.6666C495.021 71.59 504.196 69.8439 513.552 74.2721C523.126 78.8016 523.524 86.6038 523.536 86.9336C523.555 87.4115 523.182 87.8135 522.702 87.8309C522.69 87.8316 522.684 87.8315 522.671 87.8315Z" fill="#E7CCA3"/>
<path d="M531.908 108.368C531.815 108.368 531.721 108.353 531.628 108.32C531.173 108.163 530.937 107.67 531.092 107.218C531.105 107.181 532.412 103.249 531.31 97.1988C530.258 91.4278 524.158 89.7881 524.096 89.7719C523.629 89.6525 523.355 89.1802 523.473 88.7172C523.592 88.2542 524.065 87.9742 524.525 88.0955C524.824 88.1721 531.765 90.0402 533.016 96.8883C534.205 103.42 532.792 107.611 532.73 107.786C532.605 108.143 532.269 108.368 531.908 108.368Z" fill="#E7CCA3"/>
<path d="M519.017 88.6621C518.986 88.6621 518.954 88.6602 518.923 88.6571C518.45 88.6073 518.108 88.1836 518.151 87.71C518.17 87.5439 518.444 83.9209 514.217 81.229C513.813 80.972 513.695 80.4368 513.956 80.0336C514.211 79.6303 514.746 79.5127 515.151 79.7685C520.324 83.0628 519.901 87.6914 519.876 87.8868C519.832 88.3311 519.452 88.6621 519.017 88.6621Z" fill="#E7CCA3"/>
<path d="M267.305 220.64C267.305 220.64 277.812 210.71 288.127 209.182C288.127 209.182 305.412 238.876 314.201 253.389C314.201 253.389 329.197 218.73 347.148 208.8L360.139 268.379C360.139 268.379 333.112 302.082 313.623 300.937C296.075 299.904 280.296 276.016 267.305 220.64Z" fill="#B1AFB4"/>
<path d="M413.242 174.619C415.725 181.303 430.048 182.257 435.781 186.077C441.514 189.895 439.217 198.87 439.217 198.87C439.217 198.87 447.683 219.135 438.645 225.986C433.105 230.187 402.542 228.278 396.815 209.946C391.082 191.614 396.815 179.775 396.815 179.775L413.242 174.619Z" fill="#E29396"/>
<path d="M412.619 205.315C421.645 210.71 427.757 216.057 427.757 216.057C427.757 216.057 420.879 268.474 420.5 285.66C420.12 302.846 423.935 332.158 423.935 332.158H341.994C341.994 332.158 346.196 293.203 345.43 286.329C344.665 279.454 336.455 257.682 336.262 251.575C336.062 245.377 346.638 208.573 347.148 208.8C353 205.185 358.353 204.122 363.625 202.594L412.619 205.315Z" fill="#B1AFB4"/>
<path d="M388.418 219.574C386.886 219.574 385.33 219.518 383.755 219.396C363.955 217.858 354.705 207.136 354.325 206.68C354.02 206.318 354.064 205.776 354.425 205.47C354.792 205.165 355.334 205.21 355.639 205.573C355.726 205.678 364.845 216.203 383.892 217.682C403.07 219.174 419.36 210.611 419.522 210.525C419.945 210.302 420.462 210.459 420.686 210.877C420.91 211.296 420.748 211.816 420.331 212.041C420.182 212.122 406.021 219.574 388.418 219.574Z" fill="#9F9DA3"/>
<path d="M358.614 210.042C358.291 210.042 357.986 209.861 357.836 209.553C357.631 209.124 357.811 208.611 358.241 208.407L367.024 204.206C367.454 204 367.97 204.182 368.176 204.61C368.381 205.039 368.194 205.551 367.771 205.756L358.982 209.957C358.863 210.014 358.739 210.042 358.614 210.042Z" fill="#9F9DA3"/>
<path d="M362.816 212.906C362.542 212.906 362.28 212.779 362.112 212.543C361.839 212.155 361.932 211.619 362.318 211.345L370.149 205.807C370.535 205.533 371.07 205.624 371.344 206.013C371.618 206.4 371.531 206.936 371.145 207.21L363.308 212.748C363.158 212.854 362.984 212.906 362.816 212.906Z" fill="#9F9DA3"/>
<path d="M375.228 217.871C375.072 217.871 374.917 217.829 374.773 217.74C374.369 217.488 374.251 216.958 374.5 216.556L379.274 208.918C379.529 208.516 380.058 208.393 380.463 208.645C380.861 208.896 380.986 209.426 380.737 209.828L375.956 217.467C375.794 217.727 375.514 217.871 375.228 217.871Z" fill="#9F9DA3"/>
<path d="M390.702 219.207C390.235 219.207 389.856 218.836 389.843 218.368L389.65 210.348C389.638 209.873 390.017 209.48 390.491 209.468C390.989 209.459 391.356 209.832 391.368 210.307L391.561 218.328C391.574 218.802 391.194 219.196 390.721 219.207C390.715 219.207 390.708 219.207 390.702 219.207Z" fill="#9F9DA3"/>
<path d="M396.242 218.635C395.825 218.635 395.464 218.335 395.389 217.914L394.057 209.702C393.976 209.233 394.3 208.792 394.767 208.716C395.234 208.638 395.676 208.957 395.751 209.426L397.089 217.637C397.164 218.106 396.846 218.547 396.379 218.624C396.329 218.631 396.286 218.635 396.242 218.635Z" fill="#9F9DA3"/>
<path d="M410.951 215.388C410.702 215.388 410.453 215.279 410.279 215.07L404.552 208.004C404.253 207.636 404.309 207.094 404.676 206.796C405.044 206.496 405.585 206.554 405.884 206.922L411.617 213.987C411.916 214.356 411.86 214.897 411.493 215.197C411.331 215.325 411.138 215.388 410.951 215.388Z" fill="#9F9DA3"/>
<path d="M403.662 199.772C405.025 201.305 412.619 205.315 412.619 205.315C412.619 205.315 399.535 211.283 385.355 210.71C371.169 210.137 363.625 202.594 363.625 202.594L369.364 201.33L403.662 199.772Z" fill="#EFC8C1"/>
<path d="M168.738 197.343C189.753 206.127 202.164 217.775 215.348 277.926C223.098 313.309 225.662 332.158 225.662 332.158H191.085C191.085 332.158 184.972 295.113 179.818 273.916C170.519 235.71 168.738 197.343 168.738 197.343Z" fill="#85CCF4"/>
<path d="M107.233 196.579C107.233 196.579 83.5419 207.654 80.1059 255.776C76.6699 303.896 75.2319 332.158 75.2319 332.158H186.404C186.404 332.158 186.447 308.861 185.993 292.057C185.539 275.253 188.987 263.032 188.607 240.117C188.221 217.202 176.762 195.052 176.762 195.052C176.762 195.052 139.707 185.504 107.233 196.579Z" fill="#85CCF4"/>
<path d="M86.8037 131.471C85.5276 124.368 87.4386 116.396 91.8207 114.062C94.9517 112.395 98.1014 113.283 101.513 114.66C105.328 116.199 130.27 111.645 132.642 114.88C135.013 118.114 127.27 126.64 128.751 130.258C130.669 134.94 117.802 137.321 119.259 142.115C120.342 145.674 121.269 149.58 119.695 152.759C118.051 156.078 122.583 169.45 118.3 172.528C118.3 172.528 105.807 177.272 94.4538 155.343C90.3455 147.408 87.9428 137.816 86.8037 131.471Z" fill="#BC8382"/>
<path d="M111.733 162.429C111.733 162.429 118.655 180.847 112.53 195.343L151.932 195.103C151.932 195.103 150.419 180.418 149.448 169.081L122.838 161.555L111.733 162.429Z" fill="#E7A5AA"/>
<path d="M108.757 196.006L114.49 181.303C121.02 185.469 133.5 189.035 146.578 189.132L140.659 205.554C140.659 205.554 119.837 204.981 108.757 196.006Z" fill="#FBF6F2"/>
<path d="M113.19 150.083C110.837 145.9 101.73 144.324 103.965 155.78C105.54 161.156 109.461 165.553 115.362 164.838C117.709 162.208 116.968 155.81 113.19 150.083Z" fill="#F8BEB3"/>
<path d="M155.343 119.693C150.171 103.486 124.463 112.189 116.931 120.936C121.662 131.599 114.74 139.604 114.74 139.604C117.628 144.375 117.354 151.778 113.402 153.39L115.363 164.838C121.32 175.785 132.3 183.181 139.688 184.425C150.936 186.319 159.533 181.482 161.431 172.636C163.23 164.23 163.989 146.781 155.343 119.693Z" fill="#F8BEB3"/>
<path d="M87.0027 104.778C86.2744 106.934 87.7996 109.834 88.8453 111.706C90.053 113.877 92.1133 115.924 94.6717 116.36C95.1262 116.438 95.7548 116.195 95.9852 115.796C96.396 115.075 96.34 114.393 95.6428 113.811C95.1946 113.435 94.4289 113.406 93.906 113.141C93.24 112.801 92.6611 112.278 92.1507 111.745C91.0489 110.602 90.2023 109.281 89.4615 107.902C88.895 106.842 88.5403 105.62 87.7995 104.661C87.5879 104.388 87.1085 104.459 87.0027 104.778Z" fill="#BC8382"/>
<path d="M142.252 137.028C142.252 137.028 141.872 138.879 141.928 141.759C141.941 142.481 142.009 143.272 142.177 144.12C142.265 144.555 142.358 144.961 142.539 145.461C142.707 145.866 142.775 146.216 143.024 146.689C143.864 148.514 145.078 150.079 146.51 151.461C147.917 152.825 149.504 153.997 150.842 155.021C151.154 155.267 151.49 155.544 151.614 155.687C151.614 155.687 151.683 155.764 151.639 155.708C151.533 155.573 151.533 155.435 151.527 155.238C151.49 155.657 151.564 155.039 151.521 155.27C151.409 155.559 150.93 156.074 150.494 156.412C149.604 157.173 148.664 157.636 148.023 157.965C147.357 158.252 146.971 158.416 146.971 158.416L146.952 158.425C146.429 158.648 146.199 159.244 146.435 159.757C146.616 160.152 147.02 160.382 147.431 160.366C147.431 160.366 147.954 160.345 148.826 160.13C149.71 159.923 150.917 159.474 152.231 158.571C152.859 158.059 153.544 157.568 154.129 156.445C154.266 156.329 154.453 155.315 154.403 155.333C154.422 154.931 154.266 154.619 154.104 154.29C153.955 154.06 153.868 153.985 153.737 153.83C153.283 153.366 152.928 153.121 152.554 152.833C151.098 151.778 149.654 150.761 148.359 149.572C147.095 148.403 145.956 147.035 145.265 145.756C145.078 145.48 144.923 145.002 144.755 144.647C144.636 144.376 144.518 143.995 144.431 143.662C144.263 142.973 144.151 142.285 144.064 141.64C143.908 140.346 143.896 139.234 143.908 138.462C143.939 137.697 143.958 137.259 143.958 137.259C143.976 136.794 143.615 136.393 143.136 136.364C142.713 136.339 142.339 136.631 142.252 137.028Z" fill="#EF9BA3"/>
<path d="M112.642 154.655C113.65 157.172 113.159 159.581 111.54 160.035C109.922 160.489 107.793 158.817 106.784 156.299C105.776 153.782 106.268 151.373 107.886 150.919C109.504 150.465 111.633 152.138 112.642 154.655Z" fill="#E7989F"/>
<path d="M146.461 132.207C146.94 133.759 150.245 133.279 153.688 133.064C158.773 132.745 160.012 132.575 160.255 131.162C160.373 130.476 159.421 127.443 153.899 127.636C147.45 127.861 145.963 130.614 146.461 132.207Z" fill="#BC8382"/>
<path d="M128.608 139.448C125.11 141.139 122.576 143.033 121.325 141.973C120.267 141.076 120.223 138.091 125.627 134.745C128.608 132.898 133.868 131.567 135.113 134.297C136.271 136.843 132.175 137.725 128.608 139.448Z" fill="#BC8382"/>
<path d="M93.2148 114.118C93.2148 114.118 94.3166 95.2981 114.665 92.6031C130.756 90.4718 144.288 97.8226 152.523 95.7007C160.758 93.5788 154.372 89.5447 156.289 89.1844C158.212 88.8241 170.767 93.0337 164.717 106.736C159.258 119.105 136.053 122.208 117.416 122.082C98.7859 121.956 93.2148 114.118 93.2148 114.118Z" fill="#BC8382"/>
<path d="M134.895 163.554C134.895 163.554 139.844 165.014 145.241 165.839C150.333 166.616 154.646 166.17 154.646 166.17C154.646 166.17 152.922 173.033 143.685 171.49C136.694 170.322 134.895 163.554 134.895 163.554Z" fill="#57474C"/>
<path d="M143.753 170C149.087 170.89 150.544 167.894 150.544 167.894C150.544 167.894 147.506 167.817 143.715 167.094C138.897 166.175 137.403 165.661 137.403 165.661C137.403 165.661 138.549 169.132 143.753 170Z" fill="#EFE8F1"/>
<path d="M121.256 119.246C113.849 119.246 106.448 118.309 99.2897 116.419C98.8913 116.314 98.6548 115.907 98.7606 115.509C98.8664 115.111 99.271 114.874 99.6694 114.98C116.6 119.448 134.944 118.502 151.321 112.314C151.701 112.169 152.137 112.362 152.28 112.747C152.423 113.132 152.23 113.561 151.844 113.707C142.103 117.388 131.676 119.246 121.256 119.246Z" fill="#AB7877"/>
<path d="M111.422 122.831C107.911 122.831 104.394 122.202 101.12 120.978C100.734 120.833 100.535 120.404 100.678 120.019C100.821 119.633 101.257 119.437 101.636 119.582C105.514 121.03 109.741 121.6 113.856 121.234C114.273 121.193 114.628 121.5 114.665 121.91C114.702 122.32 114.397 122.681 113.993 122.717C113.134 122.793 112.281 122.831 111.422 122.831Z" fill="#AB7877"/>
<path d="M156.015 111.535C155.741 111.535 155.48 111.387 155.349 111.128C155.162 110.761 155.312 110.313 155.679 110.127C158.331 108.776 160.416 106.262 161.256 103.404C162.091 100.545 161.692 97.3038 160.186 94.7345C159.974 94.3804 160.099 93.9236 160.453 93.7158C160.808 93.508 161.263 93.6262 161.468 93.9815C163.18 96.8981 163.634 100.577 162.688 103.822C161.736 107.067 159.37 109.921 156.351 111.454C156.246 111.509 156.127 111.535 156.015 111.535Z" fill="#AB7877"/>
<path d="M95.7422 145.404C95.3563 145.404 94.9704 145.387 94.5845 145.354C94.1736 145.319 93.8686 144.958 93.9059 144.548C93.9371 144.139 94.2981 143.838 94.709 143.87C99.8818 144.315 105.098 141.387 107.414 136.751C107.594 136.383 108.042 136.233 108.41 136.417C108.777 136.601 108.926 137.048 108.746 137.416C106.337 142.239 101.108 145.404 95.7422 145.404Z" fill="#AB7877"/>
<path d="M97.249 148.934C97.1992 148.934 97.1556 148.934 97.1058 148.933C96.6949 148.928 96.365 148.591 96.3712 148.18C96.3712 147.768 96.695 147.429 97.1245 147.443C100.299 147.504 103.492 146.119 105.665 143.803C105.945 143.503 106.418 143.488 106.717 143.769C107.016 144.05 107.034 144.522 106.748 144.822C104.333 147.403 100.785 148.934 97.249 148.934Z" fill="#AB7877"/>
<path d="M98.0953 110.637C98.0144 110.637 97.9335 110.624 97.8525 110.596C97.4666 110.464 97.2549 110.041 97.3919 109.652C99.1659 104.443 102.932 99.903 107.725 97.1961C112.518 94.4885 118.351 93.6049 123.729 94.7748C124.134 94.8619 124.389 95.2589 124.302 95.6603C124.215 96.0623 123.816 96.318 123.412 96.2303C118.388 95.137 112.935 95.9634 108.46 98.4929C103.978 101.022 100.461 105.265 98.7987 110.131C98.6928 110.441 98.4066 110.637 98.0953 110.637Z" fill="#AB7877"/>
<path d="M131.814 101.525C131.727 101.525 131.646 101.511 131.559 101.48C126.884 99.7977 121.824 99.3546 116.925 100.198C116.526 100.269 116.134 99.9962 116.066 99.5905C115.997 99.1854 116.271 98.8002 116.676 98.7305C121.824 97.8425 127.146 98.3086 132.063 100.079C132.456 100.218 132.655 100.645 132.512 101.032C132.406 101.336 132.119 101.525 131.814 101.525Z" fill="#AB7877"/>
<path d="M131.621 113.811C130.979 113.811 130.363 113.8 129.778 113.78C129.367 113.766 129.044 113.421 129.056 113.011C129.068 112.599 129.386 112.266 129.828 112.291C141.095 112.677 154.161 109.784 156.252 102.53C156.364 102.135 156.775 101.905 157.173 102.021C157.572 102.135 157.796 102.548 157.684 102.943C155.2 111.563 140.914 113.811 131.621 113.811Z" fill="#AB7877"/>
<path d="M91.8145 134.907C91.5282 134.907 91.2543 134.742 91.136 134.466C88.3286 128.194 89.088 121.865 93.2213 117.102C93.4952 116.792 93.9621 116.757 94.2733 117.027C94.5846 117.297 94.6156 117.767 94.348 118.078C90.6069 122.385 89.9347 128.137 92.4931 133.858C92.6611 134.233 92.4931 134.674 92.1196 134.841C92.02 134.886 91.9141 134.907 91.8145 134.907Z" fill="#AB7877"/>
<path d="M97.7219 139.65C97.504 139.65 97.2861 139.556 97.143 139.375C95.2008 136.986 94.2298 133.859 94.4788 130.793C94.5099 130.383 94.8647 130.073 95.2817 130.11C95.6926 130.143 95.9976 130.502 95.9602 130.912C95.7486 133.6 96.5952 136.342 98.2945 138.436C98.556 138.756 98.5062 139.225 98.1888 139.484C98.0518 139.596 97.8838 139.65 97.7219 139.65Z" fill="#AB7877"/>
<path d="M135.679 145.62C135.916 147.252 135.057 148.762 133.75 148.993C132.449 149.223 131.198 148.086 130.955 146.453C130.712 144.821 131.577 143.311 132.878 143.081C134.185 142.85 135.437 143.987 135.679 145.62Z" fill="#57474C"/>
<path d="M126.728 148.797C126.679 146.119 128.658 143.055 132.194 141.981C134.765 141.267 136.476 143.721 136.427 145.109C136.427 145.109 134.765 143.431 132.63 144.16C130.494 144.889 126.728 148.797 126.728 148.797Z" fill="#57474C"/>
<path d="M157.59 141.534C157.821 143.098 157.024 144.538 155.81 144.752C154.602 144.966 153.432 143.873 153.202 142.31C152.971 140.747 153.768 139.306 154.976 139.092C156.19 138.879 157.36 139.972 157.59 141.534Z" fill="#57474C"/>
<path d="M149.685 144.322C149.137 141.879 151.197 138.466 154.123 137.917C156.445 137.35 158.58 140.146 158.543 141.487C158.543 141.487 156.912 139.384 154.546 140.002C151.888 140.696 149.685 144.322 149.685 144.322Z" fill="#57474C"/>
<path d="M398.172 181.994C398.172 181.994 419.547 180.701 425.417 154.871C430.696 131.65 414.393 114.255 396.927 116.188C396.927 116.188 385.797 108.654 371.325 122.363C356.859 136.071 372.937 159.153 372.937 159.153L398.172 181.994Z" fill="#E29396"/>
<path d="M403.662 199.772C398.651 182.937 401.813 165.988 401.813 165.988L387.036 164.532L372.713 166.134C374.232 175.131 376.622 192.201 373.634 199.72C373.074 201.12 380.575 205.599 387.739 205.541C395.8 205.475 403.973 200.811 403.662 199.772Z" fill="#EFC8C1"/>
<path d="M401.465 189.146C399.859 176.477 401.813 165.988 401.813 165.988L389.775 164.801L373.323 169.926C374.755 179.323 376.242 193.158 373.634 199.72C373.634 199.72 371.835 200.414 369.364 201.329C370.522 202.586 373.13 205.163 375.452 205.55C378.888 206.121 394.387 198.7 401.465 189.146Z" fill="#EFC8C1"/>
<path d="M368.312 190.354C370.927 191.504 386.93 192.794 398.004 178.269C403.917 170.513 407.222 160.157 407.484 153.398C407.745 146.639 405.778 124.775 384.135 126.266C384.135 126.266 366.557 127.594 360.438 153.557C354.936 176.9 365.38 189.067 368.312 190.354Z" fill="#FFDDD7"/>
<path d="M373.535 147.403C372.546 148.295 371.369 146.31 367.198 145.404C364.335 144.78 362.231 146.458 362.131 145.707C362.032 144.905 363.806 142.243 368.363 142.928C373.031 143.631 374.843 146.228 373.535 147.403Z" fill="#E29396"/>
<path d="M382.554 149.861C382.43 151.472 386.015 150.663 389.912 152.808C393.958 155.037 394.686 157.825 395.682 157.28C396.193 157.001 395.707 152.525 390.447 149.785C385.766 147.349 382.679 148.242 382.554 149.861Z" fill="#E29396"/>
<path d="M371.213 169.74C371.213 169.74 370.852 169.589 370.205 169.259C369.526 168.895 368.599 168.365 367.653 167.384C367.179 166.895 366.725 166.272 366.401 165.491C366.252 165.093 366.115 164.668 366.078 164.183C366.059 163.942 366.034 163.692 366.09 163.419C366.115 163.29 366.146 163.148 366.202 163C366.227 162.928 366.246 162.859 366.289 162.772L366.352 162.649L366.383 162.589L366.401 162.558L366.408 162.543L366.532 162.371C366.495 162.388 366.874 162.048 367.061 161.981C367.192 161.921 367.31 161.87 367.41 161.837L367.995 161.641L369.084 161.284C369.794 161.035 370.485 160.741 371.138 160.384C372.439 159.673 373.547 158.661 374.269 157.477C374.998 156.297 375.334 154.986 375.477 153.847C375.614 152.701 375.552 151.719 375.514 151.036C375.44 150.352 375.396 149.961 375.396 149.961L375.39 149.94C375.371 149.744 375.514 149.567 375.707 149.546C375.894 149.526 376.062 149.654 376.1 149.834C376.1 149.834 376.174 150.236 376.311 150.939C376.405 151.65 376.554 152.674 376.498 153.929C376.436 155.175 376.187 156.678 375.44 158.131C374.711 159.587 373.466 160.907 372.022 161.844C371.3 162.315 370.541 162.71 369.781 163.043L368.673 163.507L368.175 163.716L368.001 163.804C368.02 163.824 368.238 163.581 368.082 163.747C368.312 163.433 368.15 163.66 368.2 163.59V163.591V163.593L368.207 163.596V163.6C368.207 163.6 368.2 163.617 368.2 163.635C368.194 163.664 368.188 163.702 368.188 163.757C368.175 163.846 368.151 163.967 368.151 164.085C368.132 164.327 368.182 164.592 368.238 164.848C368.381 165.363 368.642 165.858 368.96 166.276C369.588 167.119 370.36 167.713 370.877 168.073C371.437 168.45 371.798 168.658 371.798 168.658C372.091 168.828 372.19 169.204 372.022 169.498C371.867 169.77 371.531 169.876 371.25 169.756L371.213 169.74Z" fill="#ECA2A9"/>
<path d="M365.337 151.8C364.646 153.042 364.658 154.492 365.362 155.041C366.071 155.588 367.204 155.026 367.895 153.784C368.586 152.543 368.574 151.092 367.864 150.545C367.161 149.996 366.028 150.558 365.337 151.8Z" fill="#57474C"/>
<path d="M370.454 155.388C370.454 155.388 370.093 153.105 367.497 151.556C365.673 150.47 365.026 152.357 363.208 151.972C362.554 151.833 361.733 150.8 361.969 149.696C361.969 149.696 362.299 150.66 363.277 150.374C364.067 150.143 366.277 148.368 368.499 149.626C371.194 151.15 371.338 153.675 370.454 155.388Z" fill="#57474C"/>
<path d="M383.475 158.906C383.868 157.442 385.013 156.232 386.034 156.202C387.055 156.173 387.571 157.334 387.179 158.799C386.787 160.261 385.642 161.471 384.621 161.501C383.6 161.53 383.09 160.369 383.475 158.906Z" fill="#57474C"/>
<path d="M382.156 157.841C382.156 157.841 383.942 156.668 387.067 158.125C389.252 159.146 388.822 160.461 390.354 161.732C390.945 162.221 392.402 162.37 393.267 161.428C393.267 161.428 392.159 161.741 391.785 160.627C391.487 159.726 390.734 157.36 388.2 155.916C385.629 154.451 383.164 155.888 382.156 157.841Z" fill="#57474C"/>
<path d="M382.393 175.027C382.393 175.027 377.992 175.209 373.435 174.598C369.14 174.022 365.841 172.366 365.841 172.366C365.841 172.366 365.611 180.772 373.448 181.678C379.38 182.364 382.393 175.027 382.393 175.027Z" fill="#57474C"/>
<path d="M373.672 177.663C369.146 177.139 368.705 174.99 368.705 174.99C368.705 174.99 371.151 175.743 374.394 176.021C378.515 176.373 379.872 176.242 379.872 176.242C379.872 176.242 378.085 178.173 373.672 177.663Z" fill="#F3ECF5"/>
<path d="M348.867 144.734C351.736 149.604 358.036 146.167 368.929 139.865C379.816 133.563 394.138 140.151 401.589 132.704C401.589 132.704 392.134 115.232 374.369 121.82C362.636 126.172 360.046 137.287 356.604 141.011C353.168 144.734 348.867 144.734 348.867 144.734Z" fill="#E29396"/>
<path d="M397.767 133.181C397.767 133.181 396.809 137.561 399.871 143.684C402.355 148.649 402.927 154.377 401.969 158.579C401.016 162.78 400.823 166.407 403.12 166.407C405.411 166.407 412.476 161.252 412.669 148.649C412.831 137.929 404.266 129.553 404.266 129.553L397.767 133.181Z" fill="#E29396"/>
<path d="M403.55 164.549C403.55 164.549 408.617 157.697 412.296 162.517C414.107 164.899 412.539 169.926 409.432 172.791C407.079 174.958 402.622 176.117 400.562 173.501C400.562 173.501 398.402 171.974 403.55 164.549Z" fill="#FFDDD7"/>
<path d="M407.571 170.616C405.872 172.457 403.674 172.858 402.983 171.814C402.299 170.771 403.12 168.432 404.826 166.591C406.525 164.75 408.468 164.104 409.152 165.148C409.843 166.192 409.277 168.775 407.571 170.616Z" fill="#EBABB0"/>
<path d="M427.757 216.057C445.33 229.806 459.086 280.218 462.908 332.158H434.256C434.256 332.158 427.185 287.952 408.467 253.58L427.757 216.057Z" fill="#B1AFB4"/>
<path d="M460.402 19.2507C459.456 19.2507 458.684 18.481 458.684 17.532V2.6365C458.684 1.68752 459.456 0.918362 460.402 0.918362C461.355 0.918362 462.12 1.68752 462.12 2.6365V17.532C462.12 18.481 461.355 19.2507 460.402 19.2507Z" fill="#FFDAA1"/>
<path d="M467.854 11.803H452.951C452.005 11.803 451.233 11.0338 451.233 10.0849C451.233 9.13527 452.005 8.36613 452.951 8.36613H467.854C468.806 8.36613 469.572 9.13527 469.572 10.0849C469.572 11.0338 468.806 11.803 467.854 11.803Z" fill="#FFDAA1"/>
<path d="M91.1688 21.3323C90.2227 21.3323 89.4507 20.5631 89.4507 19.6142V4.71865C89.4507 3.76967 90.2227 2.9999 91.1688 2.9999C92.1212 2.9999 92.8931 3.76967 92.8931 4.71865V19.6142C92.8931 20.5631 92.1212 21.3323 91.1688 21.3323Z" fill="#F48591"/>
<path d="M98.6203 13.8853H83.7242C82.7718 13.8853 82 13.1161 82 12.1665C82 11.2175 82.7718 10.4484 83.7242 10.4484H98.6203C99.5726 10.4484 100.338 11.2175 100.338 12.1665C100.338 13.1161 99.5726 13.8853 98.6203 13.8853Z" fill="#F48591"/>
<path d="M579.719 93.3146C579.719 96.6364 577.024 99.3296 573.7 99.3296C570.376 99.3296 567.681 96.6364 567.681 93.3146C567.681 89.9923 570.376 87.299 573.7 87.299C577.024 87.299 579.719 89.9923 579.719 93.3146Z" fill="#F48591"/>
<path d="M247.024 37.0105C247.024 39.2252 245.231 41.0205 243.015 41.0205C240.799 41.0205 239 39.2252 239 37.0105C239 34.7952 240.799 32.9999 243.015 32.9999C245.231 32.9999 247.024 34.7952 247.024 37.0105Z" fill="#FFDAA1"/>
<path d="M544.875 291.67C539.808 292.768 533.801 290.414 530.178 291.79C527.775 292.706 525.976 297.734 525.976 297.734C525.976 297.734 520.741 299.541 520.461 302.098C520.181 304.655 522.385 306.137 522.385 306.137C522.385 306.137 520.99 308.232 521.613 310.157C522.185 311.916 525.665 313.181 525.665 313.181C525.665 313.181 525.503 315.499 527.632 317.07C528.914 318.014 534.355 317.51 539.123 315.927C544.663 314.087 549.662 310.96 551.921 309.625C556.783 306.756 548.915 290.793 544.875 291.67Z" fill="#F5C4BC"/>
<path d="M522.384 306.923C522.023 306.923 521.694 306.671 521.613 306.303C521.525 305.879 521.793 305.46 522.216 305.369C522.241 305.364 524.439 304.887 525.646 304.303C526.032 304.113 526.505 304.278 526.692 304.669C526.885 305.06 526.717 305.53 526.325 305.718C524.949 306.383 522.646 306.884 522.553 306.905C522.497 306.917 522.44 306.923 522.384 306.923Z" fill="#EBABB0"/>
<path d="M525.665 313.966C525.266 313.966 524.924 313.663 524.88 313.258C524.837 312.826 525.154 312.442 525.584 312.399C525.609 312.396 527.594 312.191 529.207 311.484C529.599 311.307 530.066 311.49 530.24 311.887C530.414 312.284 530.234 312.747 529.835 312.922C527.993 313.732 525.833 313.953 525.739 313.963C525.715 313.965 525.69 313.966 525.665 313.966Z" fill="#EBABB0"/>
<path d="M544.874 291.67C548.864 290.53 556.887 280.981 556.887 280.981L574.08 298.359C574.08 298.359 564.625 305.138 551.92 309.625L544.874 291.67Z" fill="#F5C4BC"/>
<path d="M543.896 183.594C582.103 201.163 622.663 226.135 625.271 244.7C628.707 269.143 576.482 308.106 563.38 304.279C553.756 301.467 549.119 292.514 548.509 286.805C547.855 280.716 574.746 255.472 574.746 255.472C574.746 255.472 536.52 245.657 529.374 239.325C522.228 232.993 522.004 186.499 543.896 183.594Z" fill="#B3DBDE"/>
<path d="M574.746 256.332C574.615 256.332 574.491 256.304 574.366 256.246C574.018 256.074 573.825 255.685 573.906 255.3C573.98 254.906 575.96 245.59 583 240.016C583.373 239.721 583.915 239.784 584.208 240.157C584.5 240.529 584.438 241.069 584.071 241.364C580.043 244.548 577.771 249.185 576.607 252.304C580.261 248.834 587.556 242.995 596.582 241.56C597.043 241.484 597.491 241.805 597.566 242.274C597.641 242.742 597.317 243.183 596.85 243.257C584.699 245.191 575.493 255.919 575.399 256.028C575.231 256.226 574.989 256.332 574.746 256.332Z" fill="#9DCED1"/>
<path d="M574.746 256.332C574.659 256.332 574.565 256.319 574.478 256.29C574.204 256.201 546.585 247.289 533.732 243.617C525.764 241.343 519.589 239.036 519.527 239.013C519.085 238.847 518.861 238.351 519.023 237.906C519.191 237.462 519.689 237.237 520.131 237.403C520.193 237.426 526.306 239.71 534.198 241.965C547.083 245.645 574.733 254.565 575.007 254.655C575.461 254.801 575.711 255.285 575.561 255.737C575.443 256.101 575.107 256.332 574.746 256.332Z" fill="#9DCED1"/>
<path d="M524.992 244.951C522.913 244.951 521.413 244.806 521.27 244.791C520.797 244.745 520.455 244.323 520.504 243.851C520.548 243.379 520.984 243.029 521.444 243.081C521.519 243.089 528.945 243.802 533.657 241.989C534.099 241.819 534.597 242.04 534.765 242.482C534.94 242.925 534.716 243.422 534.274 243.593C531.385 244.703 527.7 244.951 524.992 244.951Z" fill="#9DCED1"/>
<path d="M528.92 321.49C528.858 321.49 528.79 321.483 528.721 321.466C524.7 320.498 520.928 317.646 518.096 313.435C515.606 309.732 514.093 305.522 512.63 301.451C512.474 301.004 512.705 300.512 513.153 300.352C513.595 300.191 514.093 300.424 514.249 300.871C515.674 304.843 517.149 308.951 519.521 312.476C522.11 316.329 525.522 318.928 529.12 319.795C529.586 319.906 529.867 320.37 529.755 320.832C529.661 321.225 529.313 321.49 528.92 321.49Z" fill="#9DCED1"/>
<path d="M521.743 321.552C521.613 321.552 521.482 321.523 521.357 321.46C518.699 320.122 516.402 317.974 514.884 315.413C514.641 315.005 514.778 314.478 515.182 314.235C515.593 313.994 516.122 314.128 516.359 314.537C517.716 316.819 519.764 318.733 522.129 319.926C522.553 320.138 522.727 320.656 522.509 321.079C522.36 321.38 522.061 321.552 521.743 321.552Z" fill="#9DCED1"/>
<path d="M565.527 305.412C564.655 305.413 563.859 305.313 563.143 305.103C552.891 302.109 548.26 292.574 547.656 286.897C547.6 286.425 547.942 286.001 548.415 285.951C548.895 285.897 549.312 286.241 549.361 286.714C549.922 291.931 554.179 300.696 563.622 303.454C569.591 305.197 585.228 297.072 599.233 284.961C615.747 270.683 624.736 255.963 623.273 245.584C623.21 245.114 623.534 244.679 624.007 244.613C624.474 244.55 624.91 244.874 624.978 245.345C626.516 256.303 617.316 271.599 600.36 286.261C588.801 296.255 573.868 305.411 565.527 305.412Z" fill="#9DCED1"/>
<path d="M462.647 226.9C462.584 226.9 462.516 226.892 462.447 226.876C461.987 226.767 461.7 226.303 461.812 225.841C462.285 223.845 462.808 221.596 463.369 219.188C466.493 205.723 470.77 187.283 474.461 180.145C474.679 179.724 475.202 179.558 475.625 179.776C476.042 179.994 476.21 180.513 475.992 180.934C472.394 187.881 468.143 206.2 465.043 219.576C464.483 221.988 463.96 224.239 463.487 226.239C463.387 226.634 463.039 226.9 462.647 226.9Z" fill="white"/>
<path d="M482.677 230.092C482.609 230.092 482.546 230.085 482.478 230.069C482.017 229.959 481.731 229.494 481.843 229.033C483.138 223.612 483.499 217.23 483.879 210.472C484.42 200.941 484.98 191.086 488.23 182.738C488.404 182.296 488.908 182.077 489.344 182.25C489.786 182.422 490.004 182.921 489.836 183.362C486.68 191.455 486.132 201.172 485.597 210.569C485.211 217.406 484.843 223.863 483.511 229.433C483.418 229.827 483.063 230.092 482.677 230.092Z" fill="white"/>
<path d="M508.74 183.123C508.373 183.123 508.055 182.856 508.005 182.485C507.943 182.078 508.223 181.7 508.634 181.641C515.133 180.7 521.463 178.294 526.941 174.682C527.284 174.456 527.75 174.55 527.974 174.894C528.205 175.238 528.105 175.7 527.763 175.926C522.098 179.657 515.562 182.143 508.846 183.115C508.808 183.121 508.777 183.123 508.74 183.123Z" fill="#EAE2DF"/>
<path d="M518.687 175.75C518.351 175.75 518.046 175.526 517.965 175.188C517.859 174.79 518.102 174.384 518.5 174.283C521.04 173.636 523.418 172.538 525.553 171.019C525.889 170.78 526.356 170.859 526.592 171.195C526.835 171.53 526.754 171.996 526.418 172.233C524.127 173.859 521.588 175.034 518.867 175.727C518.805 175.742 518.743 175.75 518.687 175.75Z" fill="#EAE2DF"/>
<path d="M469.207 179.765C469.133 179.765 469.052 179.753 468.977 179.729C465.373 178.564 462.055 176.313 459.64 173.391C459.378 173.074 459.422 172.604 459.739 172.342C460.057 172.08 460.524 172.125 460.785 172.442C463.026 175.148 466.095 177.232 469.438 178.311C469.83 178.438 470.042 178.858 469.917 179.249C469.817 179.565 469.525 179.765 469.207 179.765Z" fill="#EAE2DF"/>
<path d="M415.165 156.876C412.215 156.876 409.27 155.582 407.372 153.285C407.129 152.993 407.166 152.559 407.459 152.317C407.752 152.074 408.187 152.116 408.43 152.408C410.615 155.044 414.555 156.166 417.805 155.078C418.166 154.956 418.552 155.151 418.676 155.51C418.794 155.871 418.601 156.26 418.24 156.381C417.244 156.715 416.205 156.876 415.165 156.876Z" fill="#C87F81"/>
<path d="M362.007 140.722C361.808 140.722 361.615 140.638 361.478 140.475C361.235 140.184 361.272 139.75 361.565 139.507C367.497 134.566 375.315 131.795 383.04 131.926C384.073 131.942 385.113 132.009 386.115 132.072C387.777 132.178 389.489 132.287 391.151 132.168C393.255 132.017 396.161 131.394 398.029 129.287C398.278 129.002 398.714 128.977 399 129.228C399.28 129.479 399.311 129.914 399.056 130.199C396.883 132.652 393.609 133.37 391.25 133.539C389.495 133.664 387.733 133.553 386.028 133.444C385.038 133.382 384.017 133.317 383.021 133.301C375.62 133.192 368.126 135.829 362.449 140.563C362.318 140.67 362.162 140.722 362.007 140.722Z" fill="#C87F81"/>
<path d="M392.227 129.479C391.897 129.479 391.605 129.236 391.549 128.896C391.493 128.521 391.748 128.17 392.128 128.113C394.381 127.767 396.566 126.74 398.265 125.221C398.545 124.968 398.981 124.992 399.236 125.276C399.492 125.559 399.467 125.993 399.18 126.247C397.282 127.941 394.854 129.087 392.333 129.471C392.302 129.477 392.264 129.479 392.227 129.479Z" fill="#C87F81"/>
<path d="M417.55 152.354C413.186 152.354 408.854 150.673 405.679 147.63C401.658 143.777 399.747 137.974 400.68 132.486C400.743 132.111 401.091 131.86 401.471 131.923C401.844 131.987 402.1 132.342 402.031 132.716C401.172 137.762 402.94 143.096 406.631 146.638C410.329 150.18 415.732 151.715 420.737 150.645C421.11 150.566 421.478 150.803 421.552 151.174C421.633 151.545 421.397 151.91 421.023 151.99C419.878 152.235 418.714 152.354 417.55 152.354Z" fill="#C87F81"/>
<path d="M420.563 134.23C420.276 134.23 420.009 134.054 419.909 133.772C418.502 129.781 415.794 126.28 412.284 123.912C408.773 121.544 404.509 120.343 400.282 120.525C399.902 120.555 399.585 120.248 399.566 119.869C399.548 119.489 399.846 119.169 400.226 119.152C404.739 118.953 409.302 120.24 413.056 122.772C416.803 125.304 419.697 129.048 421.21 133.314C421.335 133.672 421.148 134.064 420.787 134.191C420.712 134.217 420.637 134.23 420.563 134.23Z" fill="#C87F81"/>
<path d="M395.278 120.319C395.135 120.319 394.991 120.274 394.867 120.179C391.742 117.808 387.341 117.142 383.656 118.485C383.301 118.614 382.903 118.431 382.772 118.075C382.642 117.718 382.828 117.323 383.183 117.193C387.298 115.694 392.209 116.436 395.695 119.084C396 119.313 396.056 119.745 395.826 120.047C395.695 120.225 395.489 120.319 395.278 120.319Z" fill="#C87F81"/>
<path d="M435.72 191.861C435.464 191.861 435.222 191.719 435.103 191.475C433.964 189.152 431.306 188.106 429.818 187.689C428.561 187.337 427.229 187.135 425.94 186.939C424.876 186.778 423.774 186.611 422.697 186.359C417.686 185.19 413.124 182.103 410.173 177.892C409.955 177.581 410.036 177.153 410.347 176.935C410.659 176.716 411.082 176.793 411.3 177.104C414.057 181.041 418.327 183.927 423.008 185.021C424.036 185.26 425.106 185.423 426.146 185.58C427.478 185.782 428.854 185.99 430.186 186.365C433.136 187.192 435.321 188.793 436.336 190.871C436.504 191.212 436.361 191.624 436.018 191.791C435.925 191.838 435.819 191.861 435.72 191.861Z" fill="#C87F81"/>
<path d="M432.825 204.888C432.7 204.888 432.582 204.857 432.47 204.789C432.146 204.593 432.041 204.17 432.234 203.846C433.248 202.167 433.622 200.1 433.261 198.174C432.893 196.247 431.792 194.459 430.235 193.268C429.937 193.037 429.874 192.605 430.111 192.304C430.335 192.002 430.771 191.946 431.069 192.176C432.893 193.57 434.188 195.664 434.611 197.919C435.035 200.173 434.599 202.592 433.41 204.557C433.286 204.77 433.055 204.888 432.825 204.888Z" fill="#C87F81"/>
<path d="M415.651 190.925C415.558 190.925 415.458 190.904 415.365 190.859C410.205 188.436 406.14 183.731 404.496 178.274C404.384 177.911 404.59 177.528 404.951 177.418C405.318 177.308 405.704 177.515 405.81 177.878C407.347 182.967 411.138 187.355 415.95 189.615C416.292 189.777 416.442 190.186 416.28 190.53C416.162 190.779 415.913 190.925 415.651 190.925Z" fill="#C87F81"/>
<path d="M419.511 198.95C419.461 198.95 419.405 198.945 419.355 198.932C414.375 197.78 409.899 194.438 407.385 189.992C407.198 189.662 407.316 189.242 407.646 189.055C407.976 188.869 408.393 188.984 408.58 189.315C410.914 193.431 415.054 196.526 419.666 197.593C420.033 197.679 420.264 198.048 420.183 198.418C420.108 198.736 419.822 198.95 419.511 198.95Z" fill="#C87F81"/>
<path d="M427.228 206.303C427.011 206.303 426.799 206.201 426.668 206.01C426.45 205.7 426.525 205.271 426.836 205.053C428.424 203.938 429.183 201.701 428.604 199.849C428.486 199.487 428.691 199.101 429.052 198.988C429.413 198.873 429.799 199.076 429.911 199.438C430.677 201.876 429.718 204.71 427.627 206.178C427.502 206.262 427.365 206.303 427.228 206.303Z" fill="#C87F81"/>
<path d="M436.927 223.237C436.659 223.237 436.404 223.079 436.292 222.816C436.149 222.467 436.31 222.066 436.659 221.917C436.877 221.8 437.524 220.876 438.047 218.877C439.006 215.179 439 209.643 436.099 205.2C435.893 204.882 435.981 204.456 436.298 204.249C436.615 204.042 437.045 204.131 437.25 204.449C440.593 209.572 440.444 215.783 439.186 219.888C438.863 220.941 438.178 222.768 437.194 223.183C437.107 223.22 437.02 223.237 436.927 223.237Z" fill="#C87F81"/>
<path d="M435.632 214.267C435.594 214.267 435.563 214.265 435.532 214.26C435.152 214.205 434.891 213.857 434.947 213.481C435.227 211.54 434.686 209.45 433.503 207.889C433.273 207.586 433.335 207.155 433.634 206.925C433.939 206.696 434.368 206.756 434.598 207.057C436.024 208.933 436.646 211.346 436.31 213.678C436.26 214.021 435.968 214.267 435.632 214.267Z" fill="#C87F81"/>
<path d="M341.995 332.396C341.963 332.396 341.932 332.394 341.901 332.391C341.428 332.339 341.086 331.914 341.136 331.443C341.179 331.061 345.319 293.126 344.578 286.424C344.291 283.876 342.922 280.062 341.335 275.645C338.77 268.522 335.583 259.658 335.403 251.594C335.353 249.414 336.61 244.225 339.48 234.769C339.623 234.315 340.102 234.058 340.557 234.196C341.011 234.333 341.266 234.814 341.129 235.267C339.38 241.024 337.065 248.976 337.121 251.556C337.295 259.34 340.432 268.059 342.947 275.064C344.578 279.583 345.978 283.485 346.283 286.234C347.049 293.124 343.022 330.061 342.847 331.63C342.798 332.07 342.424 332.396 341.995 332.396Z" fill="#9F9DA3"/>
<path d="M336.691 246.706C336.324 246.706 335.982 246.468 335.87 246.099C334.681 242.247 335.241 237.359 335.266 237.153C335.322 236.682 335.745 236.341 336.218 236.4C336.691 236.455 337.027 236.882 336.971 237.353C336.965 237.4 336.436 242.092 337.513 245.593C337.65 246.047 337.401 246.528 336.946 246.667C336.859 246.694 336.772 246.706 336.691 246.706Z" fill="#9F9DA3"/>
<path d="M268.251 220.912C268.793 223.215 269.341 225.461 269.895 227.665C277.165 221.013 287.274 217.18 290.629 216.03L287 210.818C277.775 212.12 269.92 219.293 268.251 220.912ZM314.326 301.817C314.071 301.817 313.822 301.81 313.573 301.796C304.273 301.249 295.677 294.457 288.015 281.608C280.035 268.22 272.783 247.773 266.465 220.836C266.403 220.553 266.484 220.255 266.683 220.046C267.062 219.65 276.101 210.355 287.311 209.046C287.629 209.01 287.934 209.149 288.114 209.409L292.702 215.996C292.857 216.222 292.895 216.509 292.807 216.768C292.714 217.028 292.509 217.229 292.247 217.309C292.11 217.35 278.727 221.503 270.386 229.565C270.38 229.566 270.38 229.567 270.38 229.569C282.151 275.375 296.698 299.082 313.679 300.08C323.221 300.653 337.021 288.996 344.397 282.007C344.74 281.681 345.281 281.695 345.611 282.039C345.935 282.384 345.922 282.928 345.58 283.254C338.185 290.261 324.453 301.817 314.326 301.817Z" fill="#9F9DA3"/>
<path d="M272.795 226.656C272.428 226.656 272.086 226.419 271.974 226.049L269.683 218.602C269.54 218.148 269.795 217.667 270.249 217.527C270.71 217.387 271.183 217.643 271.326 218.096L273.617 225.543C273.754 225.997 273.505 226.478 273.05 226.617C272.963 226.643 272.876 226.656 272.795 226.656Z" fill="#9F9DA3"/>
<path d="M277.097 223.647C276.755 223.647 276.431 223.442 276.294 223.104L273.574 216.23C273.399 215.789 273.611 215.289 274.053 215.115C274.495 214.94 274.999 215.155 275.173 215.597L277.894 222.472C278.068 222.913 277.85 223.413 277.408 223.587C277.309 223.628 277.203 223.647 277.097 223.647Z" fill="#9F9DA3"/>
<path d="M284.255 220.068C283.95 220.068 283.651 219.902 283.496 219.612L279.916 212.88C279.692 212.461 279.854 211.941 280.271 211.718C280.688 211.495 281.211 211.654 281.435 212.073L285.015 218.805C285.239 219.223 285.083 219.744 284.66 219.966C284.535 220.035 284.392 220.068 284.255 220.068Z" fill="#9F9DA3"/>
<path d="M287.124 218.779C286.826 218.779 286.539 218.625 286.377 218.349L282.655 211.904C282.412 211.494 282.556 210.968 282.966 210.73C283.377 210.492 283.9 210.633 284.143 211.044L287.865 217.489C288.102 217.9 287.965 218.426 287.554 218.663C287.417 218.741 287.268 218.779 287.124 218.779Z" fill="#9F9DA3"/>
<path d="M321.932 271.148C321.503 271.148 321.129 270.822 321.08 270.384C321.067 270.284 319.897 260.299 314.45 254.855C314.207 254.61 314.133 254.24 314.263 253.919C314.394 253.598 314.712 253.389 315.06 253.389C315.29 253.389 320.799 253.482 324.715 261.609C324.92 262.037 324.74 262.551 324.31 262.756C323.887 262.961 323.37 262.783 323.165 262.355C321.341 258.569 319.194 256.761 317.569 255.897C321.808 261.812 322.748 269.812 322.791 270.194C322.841 270.666 322.505 271.09 322.032 271.142C322.001 271.146 321.964 271.148 321.932 271.148Z" fill="#9F9DA3"/>
<path d="M434.25 332.396C433.839 332.396 433.478 332.099 433.41 331.679C433.322 331.188 424.882 282.115 404.291 247.431C404.048 247.022 404.179 246.495 404.59 246.253C405 246.012 405.523 246.145 405.766 246.554C426.525 281.518 435.015 330.899 435.103 331.394C435.177 331.861 434.866 332.305 434.399 332.384C434.349 332.392 434.3 332.396 434.25 332.396Z" fill="#9F9DA3"/>
<path d="M410.042 257.017C409.881 257.017 409.719 256.972 409.576 256.878L402.983 252.581C402.585 252.322 402.473 251.789 402.735 251.392C402.99 250.994 403.525 250.882 403.923 251.142L410.509 255.438C410.908 255.697 411.02 256.23 410.765 256.628C410.596 256.88 410.323 257.017 410.042 257.017Z" fill="#9F9DA3"/>
<path d="M375.378 274.623C375.266 274.623 375.154 274.602 375.042 274.556C369.95 272.419 365.605 268.623 362.797 263.866C362.555 263.458 362.692 262.931 363.102 262.689C363.507 262.448 364.036 262.583 364.279 262.993C366.893 267.433 370.958 270.977 375.708 272.972C376.15 273.155 376.355 273.659 376.168 274.096C376.031 274.425 375.714 274.623 375.378 274.623Z" fill="#9F9DA3"/>
<path d="M370.784 276.519C370.703 276.519 370.622 276.508 370.541 276.484C367.758 275.666 365.312 273.91 363.644 271.541C363.37 271.153 363.463 270.616 363.855 270.344C364.241 270.071 364.783 270.165 365.051 270.553C366.495 272.606 368.617 274.127 371.026 274.836C371.481 274.97 371.742 275.447 371.605 275.903C371.493 276.277 371.151 276.519 370.784 276.519Z" fill="#9F9DA3"/>
<path d="M480.387 252.034C480.319 252.034 480.25 252.025 480.188 252.007C474.281 250.368 463.823 242.666 460.81 236.73C460.623 236.364 460.773 235.916 461.134 235.729C461.501 235.544 461.949 235.689 462.136 236.056C465 241.691 474.953 249.01 480.586 250.571C480.979 250.681 481.215 251.091 481.103 251.488C481.01 251.817 480.711 252.034 480.387 252.034Z" fill="#EAE2DF"/>
<path d="M472.594 253.628C472.513 253.628 472.426 253.614 472.345 253.586C468.94 252.396 465.833 250.179 463.605 247.345C463.35 247.021 463.406 246.553 463.729 246.299C464.053 246.044 464.52 246.101 464.775 246.423C466.836 249.038 469.699 251.082 472.836 252.18C473.228 252.316 473.428 252.741 473.297 253.129C473.185 253.436 472.899 253.628 472.594 253.628Z" fill="#EAE2DF"/>
<path d="M254.588 150.97C254.588 150.97 261.908 155.903 260.296 166.348C258.385 178.722 251.37 185.646 251.37 185.646L268.749 188.566C268.749 188.566 265.182 177.797 266.764 167.584C268.338 157.371 276.611 154.608 276.611 154.608L254.588 150.97Z" fill="#FFC67F"/>
<path d="M232.018 194.261L285.102 202.456C285.102 202.456 278.404 189.343 261.429 186.05C243.733 182.615 232.018 194.261 232.018 194.261Z" fill="#FFDAA1"/>
<path d="M247.666 76.3733L308.811 85.813C308.811 85.813 308.624 159.825 266.813 155.199C225.002 150.574 247.666 76.3733 247.666 76.3733Z" fill="#FFDAA1"/>
<path d="M238.448 142.687C235.653 142.687 232.367 142.132 228.601 140.601C219.836 137.039 211.95 124.981 209.846 111.929C208.053 100.826 210.904 91.1557 217.664 85.3997C230.344 74.5967 242.606 81.8355 247.318 87.1726C248.345 88.3393 248.239 90.1202 247.069 91.1507C245.905 92.1787 244.131 92.0698 243.098 90.9099C243.073 90.8813 240.409 87.9485 236.363 86.3979C231.246 84.4396 226.185 85.546 221.318 89.6896C214.166 95.7822 214.545 105.676 215.411 111.033C217.197 122.089 223.776 132.556 230.723 135.379C240.577 139.383 245.569 134.95 245.774 134.76C246.889 133.675 248.663 133.715 249.746 134.831C250.829 135.947 250.791 137.745 249.677 138.83C249.453 139.044 245.588 142.686 238.448 142.687Z" fill="#FFDAA1"/>
<path d="M304.877 153.854C293.28 153.854 288.911 146.706 288.711 146.371C287.921 145.031 288.369 143.303 289.707 142.511C291.046 141.72 292.776 142.164 293.567 143.504C293.697 143.71 297.345 149.299 307.908 148.028C315.172 147.154 323.806 139.708 328.449 130.323C330.945 125.276 334.319 115.438 328.91 106.268C326.638 102.418 323.744 100.062 320.32 99.2651C314.102 97.8178 307.746 101.827 307.684 101.868C306.383 102.721 304.634 102.358 303.781 101.057C302.928 99.7549 303.29 98.0075 304.59 97.1544C304.927 96.9329 312.956 91.7644 321.596 93.7749C326.582 94.9348 330.678 98.1743 333.765 103.403C338.701 111.77 338.608 122.493 333.504 132.821C327.995 143.967 317.743 152.522 308.58 153.625C307.273 153.782 306.035 153.854 304.877 153.854Z" fill="#FFDAA1"/>
<path d="M308.811 85.813L294.52 83.6065C293.903 95.3678 289.291 153.241 258.106 149.791C255.298 149.48 252.852 148.714 250.723 147.579C254.526 151.643 259.749 154.417 266.814 155.199C308.625 159.825 308.811 85.813 308.811 85.813Z" fill="#FFC67F"/>
<path d="M261.429 186.049C260.259 185.822 259.114 185.664 258 185.561C267.293 187.449 272.609 200.527 272.609 200.527L285.102 202.456C285.102 202.456 278.404 189.343 261.429 186.049Z" fill="#FFC67F"/>
<path d="M286.851 87.8496C286.801 87.8496 286.745 87.8453 286.689 87.8372L251.395 82.3887C250.816 82.2997 250.424 81.7595 250.511 81.1827C250.598 80.6059 251.14 80.2101 251.719 80.2991L287.012 85.7476C287.591 85.8366 287.983 86.3767 287.896 86.9536C287.815 87.4756 287.367 87.8496 286.851 87.8496Z" fill="#FFF3E1"/>
<path d="M266.472 88.9802C266.416 88.9802 266.36 88.9765 266.31 88.9678L253.07 86.9248C252.497 86.8359 252.099 86.2957 252.186 85.7189C252.279 85.142 252.815 84.7444 253.393 84.8358L266.627 86.8788C267.206 86.9678 267.605 87.5079 267.511 88.0848C267.43 88.6069 266.982 88.9802 266.472 88.9802Z" fill="#FFF3E1"/>
<path d="M255.647 146.724C255.46 146.724 255.279 146.677 255.105 146.577C244.878 140.535 245.656 116.517 245.693 115.498C245.712 114.928 246.185 114.48 246.751 114.48C246.764 114.48 246.776 114.48 246.789 114.48C247.374 114.502 247.828 114.992 247.803 115.576C247.797 115.813 247.038 139.353 256.182 144.757C256.686 145.054 256.854 145.703 256.555 146.205C256.356 146.538 256.008 146.724 255.647 146.724Z" fill="#FFF3E1"/>
<path d="M259.481 195.797C259.425 195.797 259.369 195.793 259.313 195.785L242.363 193.168C241.79 193.078 241.392 192.539 241.479 191.962C241.573 191.385 242.108 190.986 242.687 191.078L259.637 193.695C260.216 193.784 260.608 194.324 260.521 194.901C260.44 195.424 259.992 195.797 259.481 195.797Z" fill="#FFF3E1"/>
<path d="M213.375 97.1816C213.276 97.1816 213.17 97.1667 213.064 97.1343C212.51 96.9626 212.192 96.3727 212.367 95.8151C212.522 95.3111 216.295 83.4548 228.582 81.9949C229.167 81.9258 229.69 82.3403 229.759 82.9202C229.827 83.4996 229.416 84.0254 228.831 84.0938C217.932 85.3888 214.527 95.9862 214.384 96.4368C214.247 96.8904 213.83 97.1816 213.375 97.1816Z" fill="#FFF3E1"/>
<path d="M241.2 86.7432C240.957 86.7432 240.72 86.6629 240.521 86.4986C238.411 84.7419 234.01 84.0412 233.966 84.0344C233.387 83.9448 232.995 83.4046 233.082 82.8278C233.17 82.2516 233.705 81.8545 234.29 81.9454C234.489 81.9771 239.307 82.7406 241.872 84.8732C242.326 85.2466 242.382 85.913 242.009 86.3617C241.803 86.6131 241.498 86.7432 241.2 86.7432Z" fill="#FFF3E1"/>
<path d="M329.141 102.636C328.824 102.636 328.506 102.491 328.294 102.216C323.439 95.7759 315.708 97.0248 315.378 97.0814C314.812 97.1785 314.258 96.7964 314.158 96.222C314.058 95.6477 314.438 95.1007 315.011 94.9999C315.39 94.9327 324.329 93.451 329.988 100.943C330.336 101.409 330.243 102.071 329.776 102.423C329.589 102.567 329.365 102.636 329.141 102.636Z" fill="#FFF3E1"/>
<path d="M242.139 201.163C237.981 197.868 233.543 193.715 235.69 192.426C237.838 191.137 239.842 193.572 243.714 196.436C247.58 199.301 251.309 200.59 251.309 200.59L247.437 203.311L242.139 201.163Z" fill="#FFDDD7"/>
<path d="M347.149 130.508C344.734 127.162 341.628 120.588 337.98 117.809C334.973 115.517 326.495 114.984 326.377 117.809C326.259 120.634 331.618 121.294 333.971 123.394C337.98 126.975 334.17 136.43 340.713 140.531C348.039 145.122 349.515 133.778 347.149 130.508Z" fill="#FCCAC0"/>
<path d="M324.659 122.822C325.686 121.187 328.736 121.054 332.502 123.206C337.694 126.176 338.036 130.005 336.816 130.755C335.615 131.494 332.907 129.489 329.957 128.121C327.51 126.985 323.003 125.454 324.659 122.822Z" fill="#FCCAC0"/>
<path d="M320.601 131.272C322.032 129.171 324.062 130.436 327.236 132.704C331.245 135.568 332.31 138.688 331.202 139.388C330.112 140.075 327.759 139.101 325.562 137.86C323.445 136.664 318.982 133.637 320.601 131.272Z" fill="#FCCAC0"/>
<path d="M322.362 126.545C323.408 124.917 326.141 125.647 329.956 128.121C335.117 131.462 335.764 134.632 334.731 135.664C333.492 136.905 329.838 134.996 326.875 132.99C324.528 131.4 320.681 129.167 322.362 126.545Z" fill="#FCCAC0"/>
<path d="M185.65 143.729C185.65 143.729 198.361 126.735 205.7 122.036C213.033 117.335 223.085 118.097 225.569 120.006C227.847 121.762 227.001 123.348 227.001 123.348C227.001 123.348 229.864 124.112 230.244 126.212C230.692 128.652 228.146 129.841 228.146 129.841C228.146 129.841 229.864 130.986 229.671 132.514C229.397 134.702 225.756 136.237 221.94 137.765C216.126 140.09 214.203 139.58 211.526 141.393C211.526 141.393 205.127 147.216 201.106 153.701L185.65 143.729Z" fill="#FFDDD7"/>
<path d="M328.239 134.047C328.089 134.047 327.934 133.996 327.809 133.892C325.711 132.162 323.215 131.04 323.19 131.029C322.848 130.877 322.698 130.479 322.848 130.138C322.997 129.798 323.396 129.643 323.738 129.796C323.844 129.844 326.427 131 328.668 132.852C328.954 133.09 328.998 133.515 328.761 133.802C328.624 133.963 328.431 134.047 328.239 134.047Z" fill="#EBABB0"/>
<path d="M330.435 129.083C330.305 129.083 330.174 129.046 330.062 128.969C328.699 128.061 325.617 126.751 325.586 126.737C325.244 126.592 325.082 126.196 325.232 125.853C325.375 125.51 325.767 125.349 326.115 125.495C326.246 125.55 329.34 126.868 330.809 127.846C331.12 128.053 331.201 128.472 330.996 128.782C330.865 128.977 330.653 129.083 330.435 129.083Z" fill="#EBABB0"/>
<path d="M187.076 134.997C187.076 134.997 200.832 138.911 206.559 154.188C206.559 154.188 182.874 239.736 150.02 253.867C117.16 267.997 91.9507 247.374 91.9507 247.374L106.467 201.163L133.973 205.459C133.973 205.459 173.798 147.027 187.076 134.997Z" fill="#85CCF4"/>
<path d="M182.214 143.635C185.769 145.882 197.371 153.857 202.164 165.045C204.038 159.306 205.183 155.351 205.501 154.234C200.67 141.716 190.686 137.588 188.171 136.726L182.214 143.635ZM126.641 259.797C119.445 259.797 113.208 258.457 108.353 256.876C97.883 253.467 91.5775 248.368 91.3099 248.153C90.8804 247.801 90.8181 247.168 91.1667 246.738C91.5215 246.307 92.1564 246.244 92.5859 246.595C92.8349 246.798 117.733 266.656 149.622 252.942C173.637 242.613 192.964 192.607 201.237 167.852C201.1 167.74 200.994 167.591 200.932 167.413C196.238 154.167 180.334 144.839 180.173 144.746C179.911 144.596 179.737 144.339 179.687 144.043C179.637 143.748 179.718 143.446 179.917 143.219L187.076 134.912C187.331 134.623 187.717 134.499 188.09 134.595C188.644 134.736 201.654 138.247 207.505 153.834C207.58 154.033 207.586 154.251 207.53 154.456C207.468 154.67 201.473 176.175 191.533 199.127C178.119 230.098 164.287 248.826 150.419 254.791C141.829 258.483 133.768 259.797 126.641 259.797Z" fill="#78B4D6"/>
<path d="M227.001 124.022C226.976 124.022 226.951 124.02 226.926 124.018C226.907 124.016 225.245 123.834 223.695 123.925C223.341 123.946 223.005 123.663 222.986 123.291C222.961 122.919 223.247 122.6 223.615 122.578C225.277 122.48 227.001 122.669 227.076 122.677C227.443 122.718 227.71 123.051 227.667 123.422C227.63 123.767 227.337 124.022 227.001 124.022Z" fill="#EBABB0"/>
<path d="M227.766 130.419C227.741 130.419 227.716 130.418 227.692 130.415C227.673 130.413 226.005 130.231 224.461 130.323C224.094 130.347 223.77 130.061 223.745 129.689C223.726 129.317 224.006 128.997 224.38 128.976C226.042 128.878 227.766 129.066 227.841 129.074C228.208 129.115 228.476 129.448 228.432 129.819C228.395 130.164 228.102 130.419 227.766 130.419Z" fill="#EBABB0"/>
<path d="M100.112 257.015C96.4577 257.015 93.6814 256.018 93.5134 255.957C92.9905 255.766 92.7227 255.188 92.9157 254.666C93.1024 254.145 93.6814 253.877 94.2043 254.067C94.2603 254.086 99.6883 256.018 105.004 254.249C105.533 254.074 106.1 254.359 106.274 254.885C106.449 255.412 106.168 255.982 105.639 256.158C103.722 256.795 101.823 257.015 100.112 257.015Z" fill="#78B4D6"/>
<path d="M186.422 332.019C185.868 332.018 185.414 331.568 185.42 331.011C185.42 330.79 185.439 308.682 184.985 292.085C184.767 284.084 185.439 277.049 186.142 269.602C186.92 261.429 187.798 252.166 187.599 240.134C187.586 239.579 188.035 239.121 188.589 239.112C189.155 239.108 189.603 239.545 189.609 240.101C189.815 252.245 188.931 261.567 188.147 269.792C187.449 277.177 186.783 284.152 186.995 292.03C187.449 308.657 187.431 330.792 187.431 331.014C187.431 331.569 186.983 332.019 186.422 332.019Z" fill="#78B4D6"/>
<path d="M188.607 257.928C188.458 257.928 188.315 257.896 188.172 257.831C187.674 257.592 187.456 256.991 187.699 256.49C187.736 256.411 191.44 248.578 191.801 243.859C191.844 243.305 192.336 242.891 192.884 242.934C193.438 242.976 193.855 243.46 193.811 244.013C193.419 249.107 189.672 257.02 189.516 257.354C189.342 257.717 188.981 257.928 188.607 257.928Z" fill="#78B4D6"/>
<path d="M155.281 283.096C154.963 283.096 154.646 282.943 154.453 282.66C154.136 282.203 154.254 281.576 154.708 281.261C159.894 277.692 164.537 273.41 168.521 268.531C168.87 268.1 169.505 268.037 169.934 268.387C170.364 268.739 170.432 269.372 170.077 269.803C165.981 274.829 161.195 279.242 155.854 282.918C155.679 283.038 155.48 283.096 155.281 283.096Z" fill="#78B4D6"/>
<path d="M159.177 287.507C158.773 287.507 158.387 287.258 158.237 286.854C158.044 286.334 158.306 285.754 158.829 285.558C162.097 284.331 164.798 281.807 166.242 278.631C166.473 278.126 167.064 277.902 167.574 278.133C168.079 278.363 168.303 278.959 168.072 279.465C166.41 283.121 163.298 286.029 159.532 287.442C159.42 287.486 159.295 287.507 159.177 287.507Z" fill="#78B4D6"/>
<path d="M125.951 223.938C125.422 223.938 124.98 223.526 124.949 222.991C124.6 217.067 127.401 211.919 129.86 208.608C127.7 210.063 125.191 212.38 123.411 215.934C123.162 216.431 122.558 216.631 122.06 216.385C121.568 216.136 121.363 215.531 121.612 215.034C125.776 206.706 133.389 204.574 133.713 204.487C134.161 204.367 134.634 204.569 134.858 204.978C135.082 205.386 134.995 205.895 134.647 206.206C134.566 206.281 126.418 213.745 126.953 222.873C126.99 223.427 126.567 223.904 126.013 223.936C125.988 223.937 125.969 223.938 125.951 223.938Z" fill="#78B4D6"/>
<path d="M148.483 247.207C148.035 247.207 147.624 246.906 147.512 246.453C147.369 245.916 147.693 245.366 148.234 245.227C152.567 244.103 156.333 241.031 158.3 237.009C158.543 236.51 159.146 236.304 159.644 236.547C160.142 236.791 160.348 237.394 160.105 237.893C157.883 242.436 153.631 245.905 148.739 247.175C148.651 247.196 148.564 247.207 148.483 247.207Z" fill="#78B4D6"/>
<path d="M186.41 148.032C186.18 148.032 185.955 147.957 185.769 147.801C185.339 147.447 185.277 146.813 185.632 146.385L192.51 138.078C192.865 137.649 193.5 137.59 193.923 137.944C194.353 138.299 194.415 138.933 194.06 139.361L187.182 147.668C186.983 147.908 186.696 148.032 186.41 148.032Z" fill="#78B4D6"/>
<path d="M190.132 151.183C189.933 151.183 189.734 151.126 189.559 151.006C189.105 150.691 188.987 150.065 189.304 149.607L195.61 140.441C195.921 139.983 196.55 139.868 197.004 140.182C197.465 140.497 197.577 141.123 197.266 141.581L190.96 150.747C190.767 151.031 190.449 151.183 190.132 151.183Z" fill="#78B4D6"/>
<path d="M198.442 160.349C198.305 160.349 198.162 160.321 198.031 160.262C197.521 160.035 197.297 159.44 197.521 158.932L202.395 148.048C202.619 147.54 203.217 147.313 203.727 147.54C204.231 147.767 204.462 148.362 204.231 148.87L199.363 159.754C199.195 160.128 198.828 160.349 198.442 160.349Z" fill="#78B4D6"/>
<path d="M571.16 248.659C570.936 248.659 570.712 248.602 570.507 248.482C569.878 248.118 569.66 247.312 570.027 246.684C572.467 242.466 575.032 238.207 577.516 234.09C585.558 220.739 593.874 206.934 599.277 192.456C607.3 170.972 607.207 150.708 599.009 135.397C598.667 134.756 598.91 133.959 599.551 133.616C600.192 133.273 600.989 133.516 601.331 134.156C609.89 150.143 610.033 171.174 601.742 193.375C596.252 208.082 587.873 221.993 579.769 235.447C577.291 239.555 574.733 243.803 572.299 248.002C572.057 248.424 571.615 248.659 571.16 248.659Z" fill="#CBE0D6"/>
<path d="M602.962 140.009C596.806 142.081 583.08 122.98 592.803 119.036C602.527 115.093 609.119 137.937 602.962 140.009Z" fill="#CBE0D6"/>
<path d="M604.469 177.395C608.895 173.877 598.674 158.09 592.25 161.339C585.832 164.588 598.381 182.23 604.469 177.395Z" fill="#CBE0D6"/>
<path d="M596.389 202.324C595.194 197.229 612.156 184.395 618.717 190.615C625.272 196.835 597.777 208.253 596.389 202.324Z" fill="#EEF9F4"/>
<path d="M606.361 159.512C603.41 156.084 611.465 141.086 619.022 143.649C626.579 146.211 609.797 163.503 606.361 159.512Z" fill="#EEF9F4"/>
<path d="M19.0175 241.588C25.5596 239.544 26.512 242.388 27.4706 239.183C28.4292 235.978 26.5617 232.687 24.657 229.844C22.746 227 20.6483 223.91 21.1151 220.618C21.6069 217.123 25.0741 214.365 28.9022 213.537C32.7242 212.707 36.7888 213.511 40.3991 214.913C51.9707 219.41 59.9506 230.474 59.7577 241.766C59.6332 249.274 56.6764 258.049 62.54 263.423C64.6191 265.335 67.5509 266.424 69.437 268.493C75.9791 275.662 65.9575 288.446 73.2216 295.035C75.8733 297.442 79.9316 297.961 83.3303 299.44C89.4304 302.099 93.2088 307.907 94.5969 313.85C95.985 319.793 95.3315 326.116 94.6654 332.159H56.4835C50.3959 323.435 44.3144 316.885 38.2267 308.161C34.2367 302.439 30.0786 296.003 31.448 289.37C32.0269 286.577 33.5645 283.974 33.8881 281.148C34.4733 275.981 30.9003 271.181 26.929 267.394C22.9577 263.608 18.3203 260.179 15.8491 255.48C13.3842 250.779 12.4754 243.631 19.0175 241.588Z" fill="#CBE0D6"/>
<path d="M76.3209 332.003C75.91 332.003 75.5303 331.748 75.3872 331.34C72.6234 323.402 67.9301 316.113 63.3924 309.064C56.8005 298.825 50.5696 289.154 51.6963 279.257C52.6673 270.763 50.0468 266.921 47.5134 263.206C45.6149 260.429 43.6603 257.558 43.3491 252.989C43.2433 251.448 43.3366 249.503 43.4424 247.444C43.7101 241.882 44.0462 234.959 40.7721 231.53C40.3923 231.136 40.4048 230.511 40.8032 230.135C41.1953 229.758 41.8178 229.773 42.1975 230.167C46.063 234.209 45.702 241.601 45.4094 247.54C45.316 249.54 45.2227 251.429 45.316 252.856C45.5899 256.89 47.3141 259.418 49.1442 262.095C51.7523 265.921 54.709 270.257 53.657 279.481C52.6113 288.678 58.6554 298.062 65.0543 307.997C69.6543 315.142 74.4162 322.531 77.2484 330.692C77.4289 331.207 77.155 331.769 76.6446 331.948C76.5326 331.985 76.4267 332.003 76.3209 332.003Z" fill="#EEF9F4"/>
<path d="M45.3669 260.14C45.1739 260.14 44.9747 260.082 44.8067 259.962C39.8579 256.503 34.4361 253.594 28.6906 251.315C28.1864 251.114 27.9374 250.541 28.1366 250.034C28.3357 249.528 28.9146 249.282 29.4188 249.481C35.3013 251.817 40.8601 254.799 45.9333 258.345C46.3815 258.657 46.4936 259.272 46.1823 259.718C45.9893 259.993 45.6781 260.14 45.3669 260.14Z" fill="#EEF9F4"/>
<path d="M59.2596 299.956C59.2471 299.956 59.2409 299.956 59.2346 299.956C58.6869 299.941 58.2573 299.489 58.2698 298.944C58.3881 294.247 59.3654 289.631 61.1769 285.224C61.3823 284.72 61.9611 284.479 62.4653 284.686C62.9696 284.893 63.2061 285.47 63.0007 285.973C61.2826 290.158 60.3552 294.539 60.2431 298.994C60.2307 299.531 59.7887 299.956 59.2596 299.956Z" fill="#EEF9F4"/>
<path d="M71.7531 322.402C71.5352 322.402 71.3237 322.332 71.1369 322.186C65.9952 318.074 59.7642 315.015 53.1223 313.34C52.5932 313.207 52.2695 312.67 52.4064 312.142C52.5372 311.614 53.0724 311.29 53.6015 311.427C60.5173 313.17 67.0098 316.358 72.3694 320.645C72.7989 320.986 72.8673 321.607 72.525 322.032C72.332 322.276 72.0456 322.402 71.7531 322.402Z" fill="#EEF9F4"/>
<path d="M4.43917 274.118C8.51007 271.744 13.2034 273.061 16.6892 274.833C24.9804 279.046 31.5661 285.375 35.6619 293.068C39.5647 300.4 41.3449 309.066 47.4388 314.915C50.0034 317.375 53.2464 319.238 55.7549 321.742C58.2634 324.246 59.8632 328.404 58.8548 332.159H9.61801C-0.416091 321.627 8.98927 315.199 8.60335 307.013C8.41038 302.949 4.89974 299.83 3.23777 296.293C1.60069 292.81 1.92432 289.039 0.573576 285.424C-0.783393 281.808 0.175298 276.606 4.43917 274.118Z" fill="#EEF9F4"/>
<path d="M32.4687 331.759C32.2571 331.759 32.0455 331.69 31.865 331.548C28.3543 328.793 26.2255 324.379 25.3541 318.052C25.1051 316.234 24.9494 314.369 24.8062 312.566C24.5573 309.495 24.302 306.32 23.5426 303.403C22.7645 300.408 20.6357 295.094 15.1581 293.16C14.6414 292.979 14.3738 292.415 14.5543 291.901C14.7348 291.388 15.3012 291.119 15.8117 291.3C20.5112 292.958 23.9348 297.08 25.4536 302.906C26.2566 305.99 26.518 309.252 26.7732 312.407C26.9164 314.183 27.0657 316.02 27.3085 317.783C28.1052 323.578 29.9976 327.573 33.0788 329.996C33.5083 330.333 33.5829 330.953 33.2468 331.382C33.0539 331.629 32.7613 331.759 32.4687 331.759Z" fill="#B7D1C6"/>
<path d="M22.0484 295.716C21.955 295.716 21.8554 295.703 21.7621 295.675C21.2392 295.519 20.9466 294.969 21.1023 294.447C21.8928 291.797 21.5132 289.15 20.0628 287.185C19.7391 286.747 19.8324 286.129 20.2743 285.806C20.7101 285.483 21.3264 285.575 21.6501 286.014C23.474 288.482 23.9657 291.762 22.9946 295.012C22.8639 295.44 22.4717 295.716 22.0484 295.716Z" fill="#B7D1C6"/>
<path d="M25.6468 322.625C25.5285 322.625 25.404 322.601 25.2857 322.553C21.1898 320.913 18.1396 317.722 16.9133 313.798C16.7515 313.278 17.0378 312.725 17.5607 312.563C18.0836 312.399 18.6314 312.69 18.7933 313.21C19.8453 316.564 22.4784 319.303 26.0203 320.722C26.5245 320.924 26.7673 321.499 26.5681 322.004C26.4125 322.39 26.039 322.625 25.6468 322.625Z" fill="#B7D1C6"/>
<path d="M239.294 257.869C243.16 254.832 247.237 256.516 250.188 258.785C257.215 264.177 262.512 272.278 265.45 282.125C268.251 291.509 269.023 302.602 273.928 310.087C275.989 313.236 278.715 315.62 280.726 318.826C282.736 322.032 283.769 327.352 282.518 332.159L238.442 332.158C230.449 318.679 239.481 310.452 239.904 299.972C240.122 294.772 237.271 290.78 236.114 286.252C234.981 281.794 235.628 276.968 234.757 272.34C233.885 267.713 235.236 261.054 239.294 257.869Z" fill="#EEF9F4"/>
<path d="M259.027 331.44C258.722 331.44 258.417 331.308 258.211 331.052C255.31 327.5 253.873 322.068 253.692 313.955C253.636 311.643 253.68 309.264 253.717 306.964C253.785 303.011 253.86 298.925 253.449 295.149C253.032 291.281 251.632 284.43 246.976 281.988C246.459 281.717 246.26 281.079 246.528 280.562C246.801 280.046 247.443 279.847 247.953 280.117C252.049 282.265 254.75 287.522 255.553 294.922C255.977 298.829 255.902 302.983 255.833 307C255.79 309.28 255.752 311.637 255.802 313.908C255.97 321.421 257.296 326.592 259.848 329.717C260.216 330.168 260.147 330.833 259.693 331.202C259.5 331.362 259.263 331.44 259.027 331.44Z" fill="#B7D1C6"/>
<path d="M253.107 285.308C253.007 285.308 252.914 285.295 252.814 285.267C252.254 285.108 251.93 284.525 252.086 283.964C253.088 280.421 253.001 276.889 251.843 274.272C251.607 273.739 251.849 273.115 252.378 272.879C252.914 272.644 253.536 272.884 253.773 273.418C255.13 276.477 255.254 280.53 254.121 284.538C253.991 285.004 253.567 285.308 253.107 285.308Z" fill="#B7D1C6"/>
<path d="M253.785 319.748C253.598 319.748 253.412 319.699 253.244 319.598C249.695 317.476 247.249 313.407 246.527 308.433C246.446 307.855 246.845 307.32 247.423 307.236C248.009 307.155 248.538 307.554 248.619 308.13C249.247 312.473 251.326 315.992 254.327 317.786C254.825 318.086 254.993 318.734 254.688 319.234C254.495 319.565 254.14 319.748 253.785 319.748Z" fill="#B7D1C6"/>
</svg>
