<svg width="320" height="180" viewBox="0 0 320 180" fill="none" xmlns="http://www.w3.org/2000/svg">
<rect x="0.5" y="0.5" width="319" height="179" rx="3.5" fill="white"/>
<path d="M159.707 80.5472V89.9131" stroke="#636466" stroke-width="1.5" stroke-linecap="round" stroke-linejoin="round"/>
<path d="M155.945 84.3242L159.707 80.5466L163.469 84.3242" stroke="#636466" stroke-width="1.5" stroke-linecap="round" stroke-linejoin="round"/>
<path d="M165.513 89.1311C169.432 89.1311 172.24 87.2631 172.827 84.3501C172.996 83.5507 172.999 82.7256 172.836 81.9249C172.673 81.1243 172.347 80.3648 171.877 79.6926C171.408 79.0204 170.805 78.4495 170.106 78.0146C169.406 77.5798 168.625 77.2899 167.809 77.1628C167.759 77.1568 167.712 77.1351 167.676 77.1009C167.639 77.0667 167.615 77.0218 167.606 76.9728C167.376 75.1581 166.484 73.4888 165.097 72.2785C163.71 71.0683 161.923 70.4004 160.073 70.4004C158.223 70.4004 156.436 71.0683 155.049 72.2785C153.662 73.4888 152.77 75.1581 152.54 76.9728C152.529 77.0205 152.503 77.0638 152.467 77.0975C152.431 77.1313 152.386 77.1539 152.337 77.1628C151.522 77.2912 150.742 77.5819 150.044 78.0174C149.345 78.4528 148.744 79.0239 148.276 79.6959C147.808 80.368 147.482 81.127 147.32 81.9271C147.157 82.7271 147.16 83.5515 147.33 84.3501C147.644 85.7258 148.428 86.9524 149.55 87.8233C150.673 88.6941 152.064 89.156 153.491 89.1311" stroke="#636466" stroke-width="2" stroke-linecap="round"/>
<path d="M138.58 104.776V105.826H144.334V104.776H138.58ZM132.714 111.412V112.462H145.286V111.412H132.714ZM137.978 100.45V111.972H139.084V100.45H137.978ZM151.992 105.112H157.732V105.994H151.992V105.112ZM151.992 103.6H157.732V104.468H151.992V103.6ZM151.026 102.942V106.666H158.74V102.942H151.026ZM150.34 107.576L150.438 108.43C152.496 108.388 155.478 108.29 158.32 108.206L158.348 107.45C155.422 107.52 152.328 107.576 150.34 107.576ZM156.584 106.806C157.382 107.394 158.32 108.248 158.768 108.808L159.524 108.332C159.062 107.772 158.096 106.946 157.298 106.386L156.584 106.806ZM154.316 100.352V107.968L155.338 107.884V100.352H154.316ZM150.06 109.172V110.026H159.44V109.172H150.06ZM156.444 107.968V112C156.444 112.182 156.388 112.238 156.178 112.238C155.94 112.266 155.226 112.266 154.372 112.238C154.498 112.504 154.638 112.868 154.694 113.134C155.772 113.134 156.472 113.148 156.906 112.994C157.34 112.854 157.466 112.588 157.466 112.014V107.968H156.444ZM151.558 110.516C152.216 111.076 152.972 111.888 153.308 112.42L154.134 111.846C153.756 111.328 152.986 110.558 152.328 110.026L151.558 110.516ZM150.452 101.332V102.144H159.3V101.332H150.452ZM149.696 100.296C148.912 102.424 147.596 104.524 146.21 105.882C146.406 106.12 146.7 106.68 146.812 106.918C148.324 105.35 149.766 102.984 150.69 100.604L149.696 100.296ZM148.24 103.908V113.106H149.248V102.928L149.22 102.914L148.24 103.908ZM165.068 102.998H168.862V103.922H165.068V102.998ZM164.2 102.368V104.552H169.772V102.368H164.2ZM164.578 107.114H169.352V110.236H164.578V107.114ZM163.738 106.456V110.908H170.234V106.456H163.738ZM166.132 108.262H167.77V109.088H166.132V108.262ZM165.474 107.716V109.648H168.456V107.716H165.474ZM162.786 105.196V105.854H171.228V105.196H162.786ZM166.482 104.132V105.49H167.406V104.132H166.482ZM161.148 100.814V113.106H162.142V101.71H171.844V113.106H172.88V100.814H161.148ZM161.764 111.664V112.56H172.39V111.664H161.764ZM177.192 103.712V104.776H184.276V103.712H177.192ZM183.198 100.254V104.356H184.276V100.254H183.198ZM176.87 100.394V105.154C176.87 107.688 176.674 110.334 174.882 112.378C175.12 112.56 175.498 112.924 175.666 113.176C177.682 110.908 177.92 107.996 177.92 105.154V100.394H176.87ZM177.15 107.03V108.08H183.688V113.12H184.78V107.03H177.15Z" fill="#1F2225"/>
<rect x="0.5" y="0.5" width="319" height="179" rx="3.5" stroke="#C2D7EA" stroke-linejoin="round" stroke-dasharray="3 3"/>
</svg>
