<svg width="24" height="24" viewBox="0 0 24 24" fill="none" xmlns="http://www.w3.org/2000/svg">
<path d="M17.3957 7.81286C17.7295 7.47912 17.7295 6.93802 17.3957 6.60429V6.60429C17.062 6.27055 16.5209 6.27055 16.1871 6.60429L12 10.7914L7.81286 6.60429C7.47912 6.27055 6.93802 6.27055 6.60429 6.60429V6.60429C6.27055 6.93802 6.27055 7.47912 6.60429 7.81286L10.7914 12L6.60429 16.1871C6.27055 16.5209 6.27055 17.062 6.60429 17.3957V17.3957C6.93802 17.7295 7.47912 17.7295 7.81286 17.3957L12 13.2086L16.1871 17.3957C16.5209 17.7295 17.062 17.7295 17.3957 17.3957V17.3957C17.7295 17.062 17.7295 16.5209 17.3957 16.1871L13.2086 12L17.3957 7.81286Z" fill="#369CF0"/>
</svg>
